<svg width="593" height="450" viewBox="0 0 593 450" fill="none" xmlns="http://www.w3.org/2000/svg">
  <path d="M18.8912 123.695C27.2178 116.912 38.4915 115.93 48.7828 117.801C59.7758 119.766 69.7865 125.052 79.9375 129.496C90.416 134.127 101.082 137.448 112.589 138.01C124.05 138.618 135.511 136.98 146.644 134.174C169.893 128.326 191.224 117.099 213.538 108.632C224.718 104.376 236.272 100.68 248.154 98.996C254.61 98.0604 261.112 97.8265 267.614 98.5282C273.789 99.1831 279.823 100.633 285.858 102.13C299.19 105.451 312.475 108.352 326.134 109.989C340.215 111.673 354.436 112.234 368.61 111.767C369.498 111.72 369.498 110.316 368.61 110.363C342.881 111.299 317.153 108.539 292.173 102.317C280.244 99.3234 268.409 96.236 256.013 96.8442C243.991 97.4523 232.109 100.633 220.788 104.516C198.101 112.328 176.77 123.789 153.754 130.759C142.06 134.267 129.944 136.7 117.688 136.746C105.245 136.793 93.5501 133.893 82.1829 128.934C70.956 124.069 59.963 118.035 47.7537 116.164C37.3688 114.573 26.2822 115.836 17.9088 122.666C17.2071 123.274 18.1895 124.303 18.8912 123.695Z" fill="#E8E8E8"/>
  <path d="M270.842 80.9392C303.26 94.926 340.074 92.5871 373.241 82.4361C391.204 76.9162 409.073 69.5251 428.206 69.5719C447.479 69.6187 465.769 76.3548 484.621 79.3487C501.742 82.0619 520.594 81.7344 535.282 71.4431C536.031 70.9285 535.329 69.7122 534.581 70.2268C521.015 79.7229 503.8 80.5649 487.895 78.4131C469.886 75.9806 452.578 69.7122 434.381 68.4024C416.184 67.0926 399.016 72.5658 381.942 78.1792C364.914 83.7459 347.699 88.0963 329.783 89.1255C309.949 90.2949 289.881 87.6285 271.59 79.7229C270.748 79.3487 270.047 80.5649 270.842 80.9392Z" fill="#E8E8E8"/>
  <path d="M1.02167 197.559C11.2662 190.261 23.3819 185.77 35.9187 184.554C42.187 183.946 48.5022 184.18 54.677 185.256C61.0857 186.378 67.2605 188.53 73.3885 190.682C84.7557 194.612 96.0294 197.605 108.005 194.845C118.343 192.46 127.699 187.08 136.867 181.981C147.673 175.947 158.9 169.772 171.437 168.649C172.326 168.556 172.326 167.152 171.437 167.246C149.077 169.257 132.283 186.051 111.42 192.46C106.134 194.097 100.614 194.939 95.0938 194.612C88.3109 194.191 81.7151 192.085 75.3532 189.887C68.9445 187.688 62.5358 185.303 55.7997 184.04C49.9991 182.964 44.0582 182.636 38.2108 183.01C24.645 183.852 11.4066 188.484 0.319983 196.389C-0.428478 196.857 0.273204 198.073 1.02167 197.559Z" fill="#E8E8E8"/>
  <path d="M125.032 215.522C143.229 196.296 169.987 188.437 195.855 188.203C210.871 188.063 225.841 190.214 240.482 193.349C254.422 196.296 267.941 200.132 282.349 198.214C297.412 196.202 311.493 189.747 324.965 182.964C325.76 182.543 325.058 181.326 324.263 181.747C311.446 188.203 298.114 194.331 283.846 196.576C276.549 197.699 269.205 197.605 261.907 196.436C254.516 195.267 247.312 193.302 239.968 191.758C213.21 186.145 184.722 183.759 158.432 192.881C145.475 197.372 133.499 204.529 124.05 214.493C123.442 215.194 124.424 216.177 125.032 215.522Z" fill="#E8E8E8"/>
  <path d="M341.852 229.509C349.477 232.175 357.289 229.696 364.259 226.375C372.071 222.632 379.416 218.001 387.415 214.68C395.414 211.359 404.021 209.113 412.722 210.189C420.674 211.172 428.019 214.727 434.989 218.516C441.585 222.118 448.087 226.047 455.104 228.807C462.916 231.848 471.336 233.298 479.709 233.111C496.877 232.737 511.472 224.176 527.143 218.375C541.785 212.949 561.291 210.517 573.033 223.24C573.641 223.895 574.623 222.913 574.015 222.258C564.8 212.294 550.111 211.172 537.481 213.838C521.015 217.3 506.794 227.357 490.234 230.585C481.393 232.316 472.131 232.082 463.383 229.977C455.244 228.012 447.946 224.176 440.649 220.106C434.053 216.411 427.364 212.575 420.113 210.376C412.582 208.084 404.723 208.037 397.098 209.909C387.789 212.201 379.228 216.738 370.855 221.323C362.201 226 352.19 231.707 342.133 228.199C341.384 227.872 341.01 229.228 341.852 229.509Z" fill="#E8E8E8"/>
  <path d="M465.021 252.056C484.387 253.226 500.339 240.081 518.629 236.105C523.494 235.029 528.64 234.561 533.598 235.403C538.042 236.151 542.065 237.976 545.901 240.315C552.497 244.338 558.906 249.53 566.952 250.091C576.728 250.746 585.383 244.665 592.68 238.958C593.382 238.397 592.399 237.414 591.698 237.976C584.587 243.496 576.074 249.53 566.531 248.641C558.251 247.893 551.702 241.905 544.732 238.022C528.687 229.041 511.519 236.105 496.129 242.887C486.258 247.191 476.014 251.354 465.067 250.699C464.132 250.606 464.132 252.009 465.021 252.056Z" fill="#E8E8E8"/>
  <path d="M23.4755 341.497C30.2584 335.042 40.3159 332.516 49.3442 334.995C58.7935 337.568 64.8747 345.707 72.4529 351.321C87.5625 362.501 108.145 360.723 124.752 354.127C144.352 346.362 160.678 332.328 180.231 324.423C189.774 320.54 200.112 318.061 210.497 318.763C220.601 319.464 229.209 323.815 237.208 329.709C245.16 335.556 252.645 342.479 261.954 346.175C271.918 350.104 283.145 349.262 292.5 344.07C293.296 343.649 292.594 342.433 291.799 342.854C282.256 348.14 270.842 348.607 260.878 344.21C252.551 340.515 245.722 334.34 238.471 328.914C231.033 323.347 223.127 318.996 213.772 317.687C204.135 316.377 194.312 318.014 185.19 321.055C165.215 327.744 148.749 341.544 129.804 350.385C112.308 358.571 89.8078 362.407 73.2014 350.104C64.9215 343.976 58.4193 335.229 47.7537 333.17C38.7254 331.44 29.1357 334.153 22.4931 340.515C21.8382 341.123 22.8206 342.152 23.4755 341.497Z" fill="#E8E8E8"/>
  <path d="M203.2 367.6C210.918 362.594 220.087 360.209 229.302 360.957C237.722 361.659 245.675 364.793 253.393 367.927C260.878 370.968 268.456 374.149 276.502 375.458C284.922 376.815 293.436 375.786 301.529 373.307C311.212 370.313 320.193 365.541 329.035 360.723C329.83 360.302 329.128 359.086 328.333 359.507C312.147 368.255 294.372 377.47 275.379 373.821C259.521 370.781 245.581 360.957 229.255 359.554C219.806 358.758 210.357 361.238 202.451 366.383C201.75 366.898 202.451 368.114 203.2 367.6Z" fill="#E8E8E8"/>
  <path d="M379.79 399.316C389.987 389.773 402.524 382.897 416.043 379.388C422.92 377.611 429.983 376.722 437.094 376.769C444.999 376.862 452.858 378.125 460.717 378.874C475.967 380.324 490.609 377.751 504.876 372.184C518.489 366.898 531.306 357.73 545.948 355.484C563.069 352.865 576.307 364.232 587.207 375.88C587.815 376.535 588.797 375.552 588.189 374.897C579.208 365.308 568.636 355.391 554.976 353.847C540.007 352.163 526.394 360.957 513.39 366.992C498.421 373.962 482.282 378.733 465.676 377.798C457.396 377.33 449.209 375.833 440.883 375.412C433.819 375.038 426.709 375.552 419.786 377.002C404.489 380.137 390.221 387.528 378.807 398.24C378.152 398.942 379.135 399.924 379.79 399.316Z" fill="#E8E8E8"/>
  <path d="M105.9 103.72C118.998 113.871 136.072 109.381 150.34 104.703C168.022 98.8555 185.938 95.1599 204.65 94.7857C205.539 94.7857 205.539 93.3823 204.65 93.3823C187.435 93.7098 170.454 96.6569 154.082 101.99C139.253 106.808 120.822 113.591 106.882 102.738C106.18 102.177 105.198 103.159 105.9 103.72Z" fill="#161616"/>
  <path d="M232.015 18.6766C247.827 17.5071 263.077 13.1099 278.373 9.41437C294.278 5.53173 310.23 2.9589 326.649 4.73649C343.209 6.51409 359.254 11.5194 375.486 15.0746C391.11 18.5362 406.968 20.1267 422.967 19.3315C440.976 18.4427 458.752 14.6536 475.546 8.19812C476.388 7.87067 476.014 6.51409 475.172 6.84154C444.625 18.583 411.272 21.0623 379.275 14.4197C363.324 11.0984 347.699 6.23341 331.561 3.89447C315.983 1.64909 300.78 2.91212 285.437 6.2802C267.661 10.1628 250.212 15.8698 232.015 17.2264C231.127 17.3668 231.127 18.7701 232.015 18.6766Z" fill="#161616"/>
  <path d="M485.182 135.904C498.842 130.852 513.016 138.056 526.675 139.366C534.02 140.068 541.317 139.366 548.474 137.682C555.491 135.998 562.321 133.519 569.478 132.443C577.15 131.273 585.336 131.741 591.978 136.091C592.727 136.606 593.429 135.39 592.68 134.875C580.892 127.203 566.484 131.32 554.041 134.782C546.229 136.98 538.417 138.571 530.277 138.243C522.512 137.963 515.074 135.811 507.496 134.22C499.965 132.677 492.199 131.835 484.855 134.548C483.966 134.828 484.34 136.185 485.182 135.904Z" fill="#161616"/>
  <path d="M8.36593 277.831C20.2477 267.259 36.9946 276.615 50.1862 278.626C65.4361 280.965 80.686 276.755 95.2342 272.686C96.123 272.452 95.7487 271.095 94.8599 271.329C78.768 275.82 62.1148 280.264 45.4147 276.288C33.2055 273.387 18.283 267.212 7.33679 276.849C6.68189 277.41 7.66425 278.393 8.36593 277.831Z" fill="#161616"/>
  <path d="M157.965 409.186C161.754 404.695 167.601 402.263 173.495 403.011C176.863 403.432 179.951 404.976 183.038 406.332C185.611 407.455 188.23 408.391 190.897 409.139C202.358 412.32 214.66 411.852 225.841 407.923C226.683 407.642 226.308 406.286 225.466 406.566C212.93 410.917 199.083 410.917 186.593 406.239C181.167 404.227 176.115 401 170.08 401.467C164.981 401.842 160.257 404.274 156.935 408.157C156.374 408.905 157.403 409.888 157.965 409.186Z" fill="#161616"/>
  <path d="M237.582 405.35C246.096 402.871 254.843 401.655 263.731 401.701C264.62 401.701 264.62 400.298 263.731 400.298C254.75 400.251 245.862 401.514 237.208 403.994C236.366 404.274 236.693 405.631 237.582 405.35Z" fill="#161616"/>
  <path d="M248.715 41.7386C256.995 48.1005 264.901 54.9302 272.479 62.181C273.134 62.7891 274.116 61.8067 273.461 61.1986C265.836 53.9011 257.791 47.0246 249.417 40.5691C248.715 39.961 248.014 41.1773 248.715 41.7386Z" fill="#161616"/>
  <path d="M167.601 66.3911C168.396 61.9939 169.238 57.5967 170.034 53.1527C170.221 52.2639 168.864 51.8897 168.677 52.7785C167.882 57.1757 167.04 61.5729 166.244 66.0169C166.104 66.9057 167.461 67.2799 167.601 66.3911Z" fill="#161616"/>
  <path d="M437.328 94.2711C438.826 94.2711 440.041 93.0563 440.041 91.5579C440.041 90.0594 438.826 88.8447 437.328 88.8447C435.829 88.8447 434.614 90.0594 434.614 91.5579C434.614 93.0563 435.829 94.2711 437.328 94.2711Z" fill="#FD4925"/>
  <path d="M82.8378 318.342C84.6204 318.342 86.0655 316.897 86.0655 315.114C86.0655 313.331 84.6204 311.886 82.8378 311.886C81.0551 311.886 79.61 313.331 79.61 315.114C79.61 316.897 81.0551 318.342 82.8378 318.342Z" fill="#FD4925"/>
  <path d="M67.2136 25.9274C71.2956 25.9274 74.6047 22.6183 74.6047 18.5363C74.6047 14.4544 71.2956 11.1453 67.2136 11.1453C63.1317 11.1453 59.8226 14.4544 59.8226 18.5363C59.8226 22.6183 63.1317 25.9274 67.2136 25.9274Z" fill="#FD4925"/>
  <path d="M82.0425 33.0843C83.4118 33.0843 84.5218 31.9743 84.5218 30.605C84.5218 29.2357 83.4118 28.1257 82.0425 28.1257C80.6733 28.1257 79.5633 29.2357 79.5633 30.605C79.5633 31.9743 80.6733 33.0843 82.0425 33.0843Z" fill="#FD4925"/>
  <path d="M223.689 449.182C226.737 449.182 229.209 446.711 229.209 443.662C229.209 440.613 226.737 438.142 223.689 438.142C220.64 438.142 218.169 440.613 218.169 443.662C218.169 446.711 220.64 449.182 223.689 449.182Z" fill="#FD4925"/>
  <path d="M480.224 35.5635C482.911 35.5635 485.089 33.3854 485.089 30.6985C485.089 28.0116 482.911 25.8335 480.224 25.8335C477.537 25.8335 475.359 28.0116 475.359 30.6985C475.359 33.3854 477.537 35.5635 480.224 35.5635Z" fill="#FD4925"/>
  <path d="M486.445 24.8512C488.099 24.8512 489.439 23.5108 489.439 21.8574C489.439 20.2039 488.099 18.8635 486.445 18.8635C484.792 18.8635 483.451 20.2039 483.451 21.8574C483.451 23.5108 484.792 24.8512 486.445 24.8512Z" fill="#FD4925"/>
  <path d="M74.6515 18.1617C78.7334 18.1617 82.0425 14.8527 82.0425 10.7707C82.0425 6.68873 78.7334 3.37964 74.6515 3.37964C70.5695 3.37964 67.2604 6.68873 67.2604 10.7707C67.2604 14.8527 70.5695 18.1617 74.6515 18.1617Z" fill="#0018CC"/>
  <path d="M70.956 322.692C72.9969 322.692 74.6515 321.038 74.6515 318.997C74.6515 316.956 72.9969 315.301 70.956 315.301C68.915 315.301 67.2604 316.956 67.2604 318.997C67.2604 321.038 68.915 322.692 70.956 322.692Z" fill="#0018CC"/>
  <path d="M200.861 438.469C202.669 438.469 204.135 437.003 204.135 435.195C204.135 433.386 202.669 431.92 200.861 431.92C199.052 431.92 197.586 433.386 197.586 435.195C197.586 437.003 199.052 438.469 200.861 438.469Z" fill="#0018CC"/>
  <path d="M462.261 18.8636C466.549 18.8636 470.026 15.3869 470.026 11.0983C470.026 6.80964 466.549 3.33301 462.261 3.33301C457.972 3.33301 454.495 6.80964 454.495 11.0983C454.495 15.3869 457.972 18.8636 462.261 18.8636Z" fill="#0018CC"/>
  <path d="M334.414 136.465C335.344 136.465 336.098 135.712 336.098 134.781C336.098 133.851 335.344 133.097 334.414 133.097C333.484 133.097 332.73 133.851 332.73 134.781C332.73 135.712 333.484 136.465 334.414 136.465Z" fill="#0018CC"/>
  <path d="M317.153 36.2185C316.17 38.5107 315.235 40.8496 314.252 43.1418C313.925 43.9838 315.282 44.358 315.609 43.516C316.591 41.2239 317.527 38.8849 318.509 36.5928C318.837 35.7507 317.48 35.3765 317.153 36.2185Z" fill="#0018CC"/>
  <path d="M316.919 37.3414C318.65 39.1658 320.006 41.224 320.895 43.563C321.223 44.405 322.579 44.0308 322.252 43.1887C321.223 40.6159 319.772 38.3705 317.901 36.359C317.293 35.7041 316.264 36.6865 316.919 37.3414Z" fill="#0018CC"/>
  <path d="M314.627 44.3581C315.983 46.8842 317.527 49.2699 319.258 51.5153C319.819 52.217 321.035 51.5153 320.474 50.8136C318.743 48.5215 317.2 46.1357 315.843 43.6565C315.375 42.8612 314.206 43.5629 314.627 44.3581Z" fill="#0018CC"/>
  <path d="M320.989 43.6563C320.427 46.2759 319.913 48.8955 319.351 51.5151C319.164 52.4039 320.521 52.7781 320.708 51.8893C321.269 49.2697 321.784 46.6501 322.345 44.0305C322.532 43.1885 321.176 42.8142 320.989 43.6563Z" fill="#0018CC"/>
  <path d="M448.929 236.479C447.806 238.537 447.058 240.736 446.73 243.075C446.59 243.963 447.946 244.338 448.087 243.449C448.414 241.25 449.069 239.192 450.145 237.227C450.566 236.385 449.35 235.684 448.929 236.479Z" fill="#0018CC"/>
  <path d="M448.835 236.9C449.771 239.379 450.847 241.765 452.063 244.057C452.484 244.852 453.7 244.15 453.279 243.355C452.11 241.157 451.08 238.864 450.192 236.525C449.864 235.683 448.508 236.058 448.835 236.9Z" fill="#0018CC"/>
  <path d="M446.449 244.057C447.666 245.788 448.835 247.518 450.051 249.249C450.566 249.998 451.782 249.296 451.268 248.548C450.051 246.817 448.882 245.086 447.666 243.355C447.151 242.607 445.935 243.308 446.449 244.057Z" fill="#0018CC"/>
  <path d="M451.548 243.823C450.566 245.179 450.098 246.723 450.098 248.36C450.098 249.249 451.502 249.249 451.502 248.36C451.502 246.957 451.923 245.647 452.765 244.525C453.279 243.776 452.063 243.074 451.548 243.823Z" fill="#0018CC"/>
  <path d="M57.624 368.909C56.361 371.669 55.0979 374.383 53.8349 377.142C53.4607 377.938 54.6769 378.686 55.0512 377.844C56.3142 375.084 57.5772 372.371 58.8402 369.611C59.2145 368.816 58.045 368.114 57.624 368.909Z" fill="#0018CC"/>
  <path d="M57.8579 369.284C59.0741 372.184 60.2904 375.084 61.5066 377.985C61.8341 378.827 63.1907 378.452 62.8632 377.61C61.647 374.71 60.4307 371.81 59.2145 368.909C58.887 368.067 57.5304 368.442 57.8579 369.284Z" fill="#0018CC"/>
  <path d="M53.5074 378.405C54.7705 380.885 55.9867 383.411 57.2497 385.89C57.4836 386.311 58.045 386.311 58.3724 386.03C59.3548 385.235 59.8226 383.878 60.3372 382.803C61.0856 381.306 61.8341 379.809 62.5825 378.312C63.0035 377.517 61.7873 376.815 61.3663 377.61C60.7114 378.92 60.0097 380.23 59.3548 381.539C58.7934 382.662 58.2789 384.206 57.2965 385.001C57.6708 385.048 58.045 385.095 58.4192 385.141C57.1562 382.662 55.9399 380.136 54.6769 377.657C54.3027 376.908 53.0864 377.61 53.5074 378.405Z" fill="#0018CC"/>
  <path d="M528.453 151.481C527.003 154.241 526.114 157.142 525.693 160.229C525.552 161.118 526.956 161.118 527.096 160.229C527.47 157.376 528.312 154.709 529.622 152.183C530.09 151.388 528.874 150.686 528.453 151.481Z" fill="#0018CC"/>
  <path d="M528.266 153.119C529.716 155.925 531.119 158.732 532.569 161.539C532.99 162.334 534.206 161.632 533.785 160.837C532.335 158.03 530.932 155.224 529.482 152.417C529.061 151.622 527.845 152.323 528.266 153.119Z" fill="#0018CC"/>
  <path d="M525.786 160.416C526.956 163.223 528.359 165.843 530.043 168.322C530.558 169.07 531.774 168.369 531.259 167.62C529.622 165.234 528.219 162.708 527.143 160.042C526.815 159.247 525.459 159.621 525.786 160.416Z" fill="#0018CC"/>
  <path d="M532.148 161.024C531.306 163.644 530.605 166.31 530.137 169.07C529.996 169.959 531.353 170.333 531.493 169.445C531.961 166.731 532.616 164.065 533.505 161.399C533.785 160.557 532.429 160.182 532.148 161.024Z" fill="#0018CC"/>
  <path d="M523.026 378.593C522.465 380.464 521.95 382.288 521.389 384.159C521.155 385.048 522.465 385.376 522.746 384.534C523.307 382.662 523.821 380.838 524.383 378.967C524.663 378.078 523.307 377.704 523.026 378.593Z" fill="#0018CC"/>
  <path d="M522.933 379.622C523.775 381.493 524.664 383.364 525.506 385.188C525.88 386.031 527.096 385.282 526.722 384.487C525.88 382.616 524.991 380.745 524.149 378.92C523.775 378.078 522.558 378.78 522.933 379.622Z" fill="#0018CC"/>
  <path d="M521.763 385.048C522.184 387.247 523.213 389.212 524.664 390.896C525.272 391.597 526.254 390.568 525.646 389.913C524.336 388.416 523.494 386.639 523.12 384.721C522.933 383.785 521.576 384.159 521.763 385.048Z" fill="#0018CC"/>
  <path d="M525.459 384.861C524.851 386.826 524.57 388.837 524.617 390.849C524.663 391.737 526.067 391.737 526.02 390.849C525.973 388.931 526.207 387.059 526.815 385.235C527.096 384.393 525.739 384.019 525.459 384.861Z" fill="#0018CC"/>
  <path d="M39.9884 131.788C38.9593 134.033 37.9769 136.278 36.9478 138.524C36.5735 139.319 37.7898 140.067 38.164 139.225C39.1931 136.98 40.1755 134.735 41.2046 132.489C41.5789 131.694 40.3626 130.946 39.9884 131.788Z" fill="#0018CC"/>
  <path d="M37.1349 139.693C38.2108 142.453 39.2399 145.166 40.3158 147.926C40.6433 148.768 41.9998 148.394 41.6724 147.552C40.5965 144.792 39.5674 142.079 38.4914 139.319C38.164 138.477 36.8074 138.851 37.1349 139.693Z" fill="#0018CC"/>
  <path d="M39.9884 131.881C41.4385 134.407 42.8887 136.98 44.3388 139.506C44.8066 140.301 45.9761 139.6 45.5551 138.804C44.1049 136.278 42.6548 133.705 41.2046 131.179C40.7368 130.384 39.5206 131.086 39.9884 131.881Z" fill="#0018CC"/>
  <path d="M44.6663 138.898C43.1694 141.705 41.8595 144.605 40.7368 147.552C40.4094 148.394 41.766 148.768 42.0934 147.926C43.1694 145.073 44.4324 142.266 45.8825 139.6C46.3035 138.805 45.0873 138.103 44.6663 138.898Z" fill="#0018CC"/>
  <path d="M392.607 174.918C393.543 173.14 395.32 171.924 397.378 172.017C399.062 172.064 400.325 173.234 401.822 173.795C404.442 174.731 405.237 173.046 407.202 171.783C409.868 170.006 412.441 173.982 415.295 173.935C416.932 173.888 418.289 173.093 418.335 171.362C417.961 171.55 417.634 171.783 417.259 171.971C418.71 172.719 420.16 173.467 421.563 174.263C422.358 174.684 423.06 173.467 422.265 173.046C420.815 172.298 419.364 171.55 417.961 170.754C417.493 170.52 416.932 170.801 416.885 171.362C416.745 174.684 410.289 169.959 409.073 169.819C406.313 169.445 405.237 172.859 402.852 172.485C400.326 172.064 398.735 170.24 396.022 170.708C393.964 171.082 392.28 172.345 391.344 174.216C391.017 175.011 392.186 175.713 392.607 174.918Z" fill="#0018CC"/>
  <path d="M410.523 165.421C412.628 163.082 415.95 166.03 418.335 166.31C421.095 166.638 423.247 163.691 425.914 165.187C428.112 166.451 432.135 169.444 433.726 165.609C434.053 164.766 432.697 164.392 432.369 165.234C431.246 167.947 427.223 164.158 425.867 163.597C424.042 162.802 422.826 163.457 421.189 164.252C419.224 165.187 417.821 164.86 415.95 164.018C415.108 163.644 414.266 163.316 413.33 163.176C411.88 162.989 410.57 163.27 409.541 164.392C408.933 165.094 409.915 166.076 410.523 165.421Z" fill="#0018CC"/>
  <path d="M372.539 55.0704C373.194 53.8542 373.942 53.5267 374.784 54.0881C375.159 54.2284 375.533 54.4155 375.907 54.6494C376.328 54.8365 376.749 55.1172 377.17 55.2575C377.918 55.4914 378.667 55.585 379.415 55.3979C381.427 54.8365 382.456 52.3105 384.608 52.3573C386.619 52.4041 388.069 54.322 390.174 53.3396C391.063 52.9186 391.671 52.1702 392.513 51.7024C394.385 50.6732 396.677 51.0475 398.267 52.3573C398.969 52.9186 399.951 51.9363 399.25 51.3749C397.145 49.6441 394.244 49.1295 391.812 50.4861C390.736 51.0942 389.847 52.404 388.444 52.2169C387.648 52.1234 386.947 51.562 386.198 51.2814C385.076 50.8603 384.046 50.72 382.924 51.2346C381.52 51.8895 380.585 53.7139 379.041 54.0413C377.076 54.4623 375.767 52.4508 373.942 52.404C372.211 52.3573 370.2 54.0413 371.369 55.7721C371.837 56.5206 373.053 55.8189 372.539 55.0704Z" fill="#FD4925"/>
  <path d="M388.069 46.7903C388.631 43.7497 393.917 46.6968 395.788 46.3693C397.004 46.1822 397.893 45.3402 399.016 44.9192C400.793 44.2175 402.524 44.4982 404.161 45.4805C404.957 45.9483 405.658 44.7321 404.863 44.2643C403.46 43.4223 401.963 43.0012 400.372 43.1416C399.671 43.1884 399.016 43.3755 398.408 43.6094C396.536 44.4046 395.788 45.2934 393.449 44.7321C391.204 44.1707 387.368 43.048 386.76 46.4161C386.526 47.3049 387.882 47.6791 388.069 46.7903Z" fill="#FD4925"/>
  <path d="M33.9071 215.849C34.5153 212.902 38.585 216.925 39.3803 217.44C40.2691 218.048 41.2514 218.469 42.3273 218.235C43.7307 218.001 44.8066 216.831 46.2567 216.504C48.5957 215.989 50.9346 216.738 52.6187 218.422C53.2736 219.077 54.2559 218.048 53.601 217.44C52.1509 215.989 50.3733 215.101 48.315 214.96C47.2859 214.867 46.2567 215.007 45.2744 215.335C43.7307 215.849 42.5144 217.346 40.6433 216.598C38.6786 215.802 37.9301 213.791 35.6847 213.557C34.2346 213.417 32.878 213.978 32.5973 215.475C32.3634 216.364 33.72 216.738 33.9071 215.849Z" fill="#FD4925"/>
  <path d="M49.4845 212.481C50.5136 211.078 55.2383 213.884 56.5949 214.212C58.7935 214.726 61.0389 214.726 63.2842 214.446C64.173 214.305 63.7988 212.949 62.91 213.089C59.0274 213.604 56.0335 212.575 52.5251 211.171C50.9346 210.563 49.3442 210.329 48.2682 211.779C47.7537 212.481 48.9699 213.183 49.4845 212.481Z" fill="#FD4925"/>
  <path d="M163.531 310.529C164.28 309.36 165.449 308.612 166.899 308.612C168.116 308.612 168.864 309.36 169.94 309.687C171.016 310.062 171.905 309.828 172.84 309.22C174.665 308.003 175.553 306.506 178.033 306.6C180.278 306.647 182.43 307.723 184.395 308.705C185.19 309.126 185.891 307.91 185.096 307.489C181.401 305.618 176.91 303.84 173.355 306.881C172.56 307.536 172.466 307.723 171.25 307.957C169.893 308.237 170.033 308.05 169.004 307.629C168.116 307.255 167.274 307.115 166.291 307.208C164.56 307.395 163.204 308.378 162.315 309.781C161.847 310.576 163.063 311.278 163.531 310.529Z" fill="#FD4925"/>
  <path d="M179.109 313.243C181.307 311.325 185.471 315.348 188.184 314.974C189.821 314.74 190.569 313.523 191.645 312.401C193.704 310.202 196.791 309.875 199.317 311.512C200.066 311.98 200.767 310.81 200.019 310.296C198.194 309.126 196.043 308.752 193.937 309.36C193.002 309.641 192.16 310.062 191.411 310.67C190.289 311.606 189.587 313.29 187.997 313.57C184.582 314.178 181.354 309.407 178.126 312.26C177.471 312.869 178.454 313.851 179.109 313.243Z" fill="#FD4925"/>
  <path d="M115.302 13.2034C115.676 11.6597 116.565 10.4435 118.062 9.78858C119.372 9.22724 120.448 9.60147 121.805 9.55469C123.301 9.46113 124.424 8.71267 125.313 7.58997C126.67 5.90594 127.558 4.17512 129.476 3.05243C131.675 1.7894 134.201 1.55551 136.633 2.30398C137.522 2.58465 137.85 1.22806 137.008 0.947386C132.517 -0.409199 128.073 1.32162 125.36 5.1107C124.284 6.60763 123.489 8.10455 121.43 8.15133C120.167 8.19811 119.091 7.91743 117.875 8.33844C115.817 9.04012 114.413 10.7709 113.946 12.8292C113.712 13.718 115.068 14.0922 115.302 13.2034Z" fill="#FD4925"/>
  <path d="M121.898 18.5831C119.887 13.2503 129.523 13.531 132.423 12.5018C136.025 11.2388 139.113 8.99343 142.153 6.74805C142.855 6.23348 142.153 5.01723 141.452 5.5318C139.393 7.0755 137.288 8.57242 135.043 9.78867C132.236 11.2856 129.57 11.7534 126.529 12.2212C123.301 12.7357 119.091 14.9811 120.588 18.9105C120.869 19.7526 122.226 19.4251 121.898 18.5831Z" fill="#FD4925"/>
  <path d="M308.452 286.766C312.007 277.457 318.042 271.375 324.263 265.06C332.449 256.78 347.653 241.39 363.136 243.823C376.328 245.881 374.878 258.558 392.981 267.773C410.055 276.521 416.604 267.867 433.632 277.27C436.158 278.673 453.981 288.824 458.051 308.003C459.735 315.956 459.314 326.855 455.805 327.884C451.829 329.054 450.472 306.132 434.568 297.151C422.405 290.274 405.658 293.595 404.302 298.507C402.852 303.7 419.645 307.114 429.141 325.171C433.304 333.03 434.193 340.187 435.456 350.011C436.626 359.273 437.936 378.265 433.632 379.388C430.077 380.323 428.159 367.646 415.108 357.261C408.231 351.788 400.887 349.543 386.198 345.052C372.96 341.029 366.27 339.064 362.669 342.339C357.336 347.204 361.452 359.553 362.201 361.752C367.44 377.47 380.819 384.019 379.836 385.703C378.527 387.808 354.108 381.727 334.18 362.22C317.153 345.52 298.114 313.757 308.452 286.766Z" fill="#FD4925"/>
  <path d="M461.185 340.982C460.998 342.292 460.015 349.59 464.319 354.268C469.09 359.413 474.891 355.484 480.738 360.583C486.118 365.261 485.416 372.277 487.053 372.137C488.925 371.997 491.778 362.501 487.755 356.747C486.492 354.922 483.405 353.285 477.277 350.104C471.008 346.83 470.166 346.97 468.529 345.192C464.459 340.795 465.067 335.042 463.617 335.042C462.495 335.042 461.512 338.503 461.185 340.982Z" fill="#FD4925"/>
  <path d="M420.955 395.901C418.335 399.83 418.616 404.04 418.85 408.484C419.131 413.022 419.318 416.717 421.984 420.039C425.025 423.828 430.077 425.418 430.732 424.576C431.246 423.921 428.954 422.144 426.896 418.261C426.662 417.793 423.621 412.04 423.762 405.303C423.902 396.883 428.861 391.878 427.598 390.989C426.662 390.287 423.06 392.72 420.955 395.901Z" fill="#FD4925"/>
  <path d="M439.713 318.342C447.572 323.534 443.268 335.556 448.414 342.573C448.929 343.275 450.145 342.573 449.63 341.871C444.298 334.574 448.835 322.692 440.415 317.125C439.666 316.611 438.965 317.827 439.713 318.342Z" fill="#FD4925"/>
  <path d="M436.907 284.473C445.327 290.929 451.174 300.144 453.513 310.483C453.7 311.371 455.057 310.997 454.87 310.108C452.437 299.396 446.356 289.947 437.655 283.304C436.86 282.696 436.158 283.912 436.907 284.473Z" fill="#0018CC"/>
  <path d="M409.775 310.389C416.511 315.909 421.797 322.973 425.072 331.065C425.399 331.907 426.756 331.533 426.428 330.691C423.013 322.364 417.727 315.114 410.757 309.407C410.102 308.845 409.073 309.828 409.775 310.389Z" fill="#0018CC"/>
  <path d="M428.346 338.784C429.609 342.152 430.451 345.567 430.779 349.122C430.872 350.011 432.275 350.011 432.182 349.122C431.808 345.427 430.966 341.871 429.656 338.41C429.422 337.568 428.065 337.942 428.346 338.784Z" fill="#0018CC"/>
  <path d="M356.353 346.549C355.184 353.613 356.541 360.676 360.376 366.757C360.844 367.506 362.06 366.804 361.593 366.056C357.991 360.349 356.587 353.613 357.71 346.923C357.85 346.034 356.494 345.66 356.353 346.549Z" fill="#0018CC"/>
  <path d="M362.248 370.593C363.932 373.681 366.083 376.441 368.656 378.827C369.311 379.435 370.293 378.452 369.639 377.844C367.159 375.505 365.101 372.839 363.464 369.892C363.043 369.097 361.826 369.798 362.248 370.593Z" fill="#0018CC"/>
  <path d="M308.545 299.303C308.171 303.747 308.592 308.144 309.855 312.447C310.089 313.336 311.446 312.962 311.212 312.073C309.996 307.863 309.575 303.653 309.949 299.303C310.042 298.414 308.639 298.414 308.545 299.303Z" fill="#0018CC"/>
  <path d="M311.259 317.219C312.007 320.867 313.364 324.236 315.328 327.417C315.796 328.165 317.012 327.463 316.545 326.715C314.674 323.627 313.364 320.4 312.615 316.845C312.428 316.002 311.072 316.377 311.259 317.219Z" fill="#0018CC"/>
  <path d="M189.119 24.8047C187.809 28.3599 186.219 33.2249 184.675 39.119C183.085 45.247 179.342 61.3857 179.717 82.6233C180.091 103.112 184.114 118.175 187.809 131.601C193.563 152.558 200.58 167.62 204.743 176.368C204.743 176.368 217.982 204.389 239.921 234.421C243.804 239.707 248.762 246.396 248.762 246.396C252.364 251.214 255.452 255.237 257.603 258.137C259.334 260.102 261.533 262.301 264.386 264.406C269.719 268.382 275.005 270.393 278.701 271.423C284.782 266.23 290.863 260.991 296.944 255.798C299.704 258.418 302.511 260.991 305.271 263.611C309.107 259.681 312.522 256.547 315.188 254.255C326.789 244.197 336.379 239.052 338.624 237.835C340.542 236.806 342.179 236.011 343.302 235.496C341.571 232.035 339.84 228.573 338.11 225.065C340.916 222.632 344.144 220.059 347.746 217.533C352.611 214.119 357.289 211.359 361.546 209.207C361.499 205.277 360.985 199.336 358.412 192.787C356.494 187.876 354.202 184.554 353.219 183.151C342.413 167.574 374.27 210.517 332.637 151.107C316.498 128.092 308.452 116.538 304.756 111.766C293.202 96.6569 284.127 86.3188 277.671 78.9745C265.322 64.8941 259.755 59.6549 255.264 55.819C249.136 50.4863 242.353 44.7325 232.109 39.3997C225.653 36.0784 220.321 34.254 212.555 31.5876C202.966 28.3131 194.873 26.1613 189.119 24.8047Z" fill="white"/>
  <path d="M187.669 25.6465C177.518 56.9415 177.518 90.7158 184.816 122.619C186.64 130.618 188.932 138.524 191.645 146.242C193.002 150.172 194.639 154.008 196.089 157.89C196.604 159.247 196.697 160.603 197.306 161.96C198.194 164.065 199.13 166.17 200.065 168.275C201.796 172.204 203.621 176.087 205.539 179.97C207.456 183.806 209.795 187.454 211.526 191.337C212.181 192.787 212.742 194.331 213.491 195.734C214.473 197.512 215.923 198.868 216.953 200.599C219.104 204.201 221.163 207.897 223.408 211.452C233.653 227.965 245.301 243.542 257.229 258.839C257.79 259.54 258.773 258.558 258.212 257.856C247.686 244.337 237.395 230.631 228.133 216.27C225.841 212.715 223.642 209.16 221.49 205.511C220.461 203.78 219.432 202.003 218.45 200.225C217.467 198.494 216.157 197.278 215.128 195.594C214.286 194.19 213.678 192.694 213.07 191.197C212.228 189.185 211.105 187.361 210.076 185.443C208.111 181.841 206.287 178.192 204.556 174.497C202.732 170.614 201.001 166.685 199.27 162.755C198.522 161.024 198.241 159.2 197.539 157.422C196.791 155.504 195.996 153.586 195.247 151.622C192.394 144.09 189.914 136.419 187.856 128.607C183.74 112.795 181.354 96.5631 181.12 80.1906C180.886 61.8065 183.412 43.4224 189.119 25.8804C189.26 25.1787 187.903 24.8044 187.669 25.6465Z" fill="black"/>
  <path d="M188.324 25.6467C196.136 26.2548 204.088 28.968 211.433 31.5408C218.683 34.1136 225.841 36.9204 232.483 40.7562C245.722 48.428 257.416 58.4854 268.082 69.4316C279.075 80.7053 289.086 93.1017 298.769 105.498C308.405 117.848 317.621 130.618 326.509 143.529C336.332 157.89 345.781 172.532 355.044 187.314C355.511 188.063 356.728 187.361 356.26 186.613C339.279 159.621 321.737 132.957 302.23 107.697C283.379 83.2314 263.17 58.2515 236.693 41.645C229.489 37.1075 221.771 33.833 213.818 30.8859C205.772 27.9388 196.978 24.8982 188.371 24.1965C187.435 24.1965 187.435 25.5999 188.324 25.6467Z" fill="black"/>
  <path d="M259.241 258.418C281.04 236.198 305.552 216.691 332.075 200.412C339.56 195.828 347.138 191.524 354.903 187.501C355.699 187.08 354.997 185.864 354.202 186.285C326.649 200.693 300.827 218.422 277.578 239.052C270.935 244.946 264.48 251.074 258.258 257.436C257.603 258.09 258.586 259.073 259.241 258.418Z" fill="black"/>
  <path d="M257.884 259.494C263.451 265.715 270.701 270.113 278.794 272.077C279.683 272.311 280.057 270.955 279.168 270.721C271.263 268.756 264.293 264.546 258.866 258.465C258.258 257.81 257.276 258.839 257.884 259.494Z" fill="black"/>
  <path d="M354.669 187.875C358.318 194.284 360.423 201.348 360.891 208.692C360.938 209.581 362.341 209.581 362.294 208.692C361.827 201.067 359.628 193.816 355.886 187.174C355.465 186.378 354.248 187.08 354.669 187.875Z" fill="black"/>
  <path d="M279.636 271.703C304.944 248.594 332.356 227.918 361.593 210.002C362.341 209.534 361.639 208.318 360.891 208.786C331.607 226.749 304.055 247.518 278.654 270.721C277.999 271.329 278.981 272.311 279.636 271.703Z" fill="black"/>
  <path d="M297.272 256.64C299.845 259.166 302.417 261.692 304.99 264.265C305.271 264.546 305.739 264.546 305.973 264.265C313.551 256.219 322.065 249.109 331.374 243.168C333.619 241.718 335.911 240.361 338.25 239.051C339.747 238.209 342.6 237.414 343.489 235.824C344.425 234.233 343.022 232.081 342.273 230.725C340.963 228.339 339.42 226.14 337.735 224.082C337.174 223.381 336.192 224.363 336.753 225.065C338.39 227.076 339.841 229.181 341.057 231.426C341.337 231.894 341.946 232.69 341.992 233.251C341.805 234.093 341.618 234.888 341.431 235.73C341.197 235.87 340.963 235.964 340.729 236.104C339.794 236.806 338.577 237.227 337.548 237.835C333.479 240.127 329.502 242.607 325.667 245.273C318.182 250.559 311.259 256.593 304.99 263.236C305.318 263.236 305.645 263.236 305.973 263.236C303.4 260.71 300.827 258.184 298.254 255.611C297.599 255.003 296.617 255.985 297.272 256.64Z" fill="black"/>
  <path d="M190.99 141.331C202.498 127.765 215.97 116.023 229.77 104.843C243.617 93.6629 258.118 83.1845 274.35 75.7466C275.192 75.3724 274.444 74.1561 273.649 74.5304C257.557 81.8746 243.196 92.2595 229.443 103.299C215.409 114.62 201.703 126.548 190.008 140.301C189.4 141.05 190.382 142.032 190.99 141.331Z" fill="black"/>
  <path d="M274.631 82.2955C273.087 82.389 272.432 79.8162 274.163 79.6758C274.771 79.6291 275.473 79.9097 275.707 80.5178C276.034 81.4066 275.192 82.3422 274.303 82.3422C273.648 82.3422 273.602 83.4181 274.303 83.4181C275.754 83.4181 277.017 82.0616 276.783 80.6114C276.596 79.3952 275.333 78.6467 274.163 78.6935C272.9 78.787 271.918 79.8162 272.058 81.0792C272.198 82.3422 273.321 83.5117 274.631 83.4181C275.333 83.3246 275.333 82.2487 274.631 82.2955Z" fill="black"/>
  <path d="M346.062 185.77C346.109 185.77 346.109 185.77 346.156 185.724C346.015 185.724 345.875 185.677 345.735 185.677C346.249 185.911 345.969 184.928 345.922 184.788C345.922 184.648 345.969 184.461 346.015 184.32C346.156 184.04 346.39 183.759 346.67 183.619C347.278 183.338 347.933 183.806 348.12 184.414C348.495 185.63 346.717 186.238 346.249 185.162C345.969 184.554 345.08 185.069 345.36 185.677C345.922 186.987 347.84 187.08 348.775 186.098C349.851 184.928 349.056 182.964 347.606 182.543C346.062 182.122 344.565 183.759 344.939 185.256C345.08 185.864 345.875 186.612 346.483 186.004C346.951 185.537 346.483 184.507 345.781 184.788C345.173 185.022 345.454 186.004 346.062 185.77Z" fill="black"/>
  <path opacity="0.15" d="M189.119 25.085C196.51 29.8564 206.521 36.8732 217.467 46.2758C224.25 52.1231 241.839 67.794 263.825 98.2002C287.682 131.179 299.611 147.645 301.996 166.029C303.213 175.619 304.897 202.938 280.806 236.525C290.77 228.947 300.78 221.322 310.744 213.744C315.095 220.901 319.398 228.058 323.749 235.215C319.071 238.677 314.393 242.092 309.715 245.553C312.007 248.313 314.299 251.027 316.591 253.787C319.398 251.073 322.766 248.173 326.649 245.32C332.637 240.922 338.39 237.788 343.349 235.496C341.478 231.894 339.653 228.245 337.782 224.643C345.828 219.357 353.874 214.025 361.92 208.739C361.499 204.762 360.517 199.009 357.944 192.553C354.95 184.975 351.161 179.923 349.711 177.958C339.232 163.784 344.331 167.199 322.392 136.372C306.628 114.199 297.927 101.802 283.987 85.7571C275.052 75.4657 269.111 68.6828 259.615 60.3094C249.511 51.3747 237.255 40.7559 218.543 32.9906C206.614 28.1256 196.136 26.0673 189.119 25.085Z" fill="#494949"/>
  <path opacity="0.11" d="M339.326 160.978C338.905 163.971 338.063 168.556 335.958 173.748C331.093 185.77 323.608 191.01 307.984 206.821C300.593 214.305 289.6 225.392 290.629 226.608C291.612 227.778 303.634 218.515 324.637 204.669C336.94 196.529 347.278 190.214 354.061 186.098C349.149 177.724 344.238 169.351 339.326 160.978Z" fill="#494949"/>
  <path opacity="0.08" d="M355.044 187.501C354.389 187.642 355.979 192.74 354.061 199.102C352.658 203.78 350.272 206.026 344.425 213.089C341.899 216.13 338.203 220.714 333.806 226.608C342.975 220.34 352.143 214.072 361.312 207.803C357.149 191.243 355.605 187.408 355.044 187.501Z" fill="#494949"/>
  <path d="M276.034 340.608C276.175 341.965 276.689 343.041 277.484 344.351C280.852 349.777 286.419 353.098 290.442 355.016C288.852 360.021 286.934 367.225 285.53 376.02C284.22 384.487 282.677 394.357 284.688 395.012C285.39 395.246 287.448 394.591 306.581 356.7C309.247 351.414 311.446 347.017 312.896 344.023C302.698 339.439 292.547 334.808 282.349 330.223C281.367 330.972 275.52 335.229 276.034 340.608Z" fill="#161616" stroke="#161616" stroke-width="2" stroke-miterlimit="10"/>
  <path d="M254.703 237.134C246.096 243.121 240.529 248.922 235.571 254.161C233.559 256.266 223.923 266.511 213.772 282.603C209.281 289.713 205.96 295.981 203.667 300.706C203.948 302.624 204.603 305.384 206.334 308.144C208.252 311.231 210.404 312.588 213.772 315.582C217.888 319.23 219.385 321.382 221.771 323.815C226.402 328.586 232.904 332.188 245.722 339.252C261.814 348.093 270.468 351.321 273.134 352.303C276.408 353.472 279.168 354.361 281.133 354.969C282.069 350.619 283.191 345.988 284.595 341.123C285.858 336.772 287.214 332.703 288.571 328.914C278.607 321.616 268.363 313.43 257.978 304.168C254.376 300.987 250.914 297.759 247.593 294.578C250.961 290.508 255.685 285.175 261.673 279.422C263.404 277.738 267.053 274.276 271.497 270.627C277.11 266.09 285.577 260.008 297.272 254.395C299.283 240.969 296.898 228.433 289.553 224.363C280.385 219.311 266.445 228.994 254.703 237.134Z" fill="white"/>
  <path d="M245.254 244.103C228.694 258.137 214.988 275.492 205.258 294.905C204.276 296.917 202.872 299.162 202.685 301.407C202.498 303.793 203.948 305.618 205.258 307.442C208.392 311.699 211.947 315.675 215.736 319.371C223.782 327.089 233.045 333.451 242.775 338.831C254.75 345.473 267.427 350.759 280.057 355.998C280.899 356.326 281.273 354.969 280.431 354.642C259.755 346.034 238.658 337.24 221.397 322.598C217.514 319.277 213.818 315.722 210.497 311.839C208.766 309.781 207.036 307.676 205.539 305.477C204.603 304.121 203.901 302.858 204.135 301.127C204.369 299.443 205.351 297.852 206.1 296.309C210.591 287.187 215.97 278.533 222.145 270.44C229.209 261.131 237.301 252.664 246.236 245.133C246.938 244.524 245.955 243.542 245.254 244.103Z" fill="black"/>
  <path d="M284.922 260.242C268.877 270.627 254.843 283.772 243.476 299.115C242.962 299.864 244.178 300.565 244.692 299.817C255.919 284.661 269.813 271.656 285.624 261.412C286.372 260.991 285.671 259.774 284.922 260.242Z" fill="black"/>
  <path d="M246.798 295.279C259.942 307.161 273.461 318.575 287.402 329.475C288.103 330.036 289.086 329.054 288.384 328.492C274.444 317.593 260.878 306.179 247.78 294.297C247.125 293.689 246.143 294.671 246.798 295.279Z" fill="black"/>
  <path d="M287.448 329.288C284.501 337.614 282.209 346.128 280.525 354.782C280.338 355.671 281.695 356.045 281.882 355.156C283.566 346.502 285.905 337.988 288.805 329.662C289.086 328.82 287.729 328.446 287.448 329.288Z" fill="black"/>
  <path opacity="0.11" d="M272.807 255.003C266.351 255.565 261.486 260.289 246.47 281.153C240.716 289.152 235.898 296.122 232.202 301.642C237.535 305.384 241.745 308.472 244.412 310.483C259.334 321.663 265.603 327.931 278.28 334.761C281.04 336.258 283.332 337.334 284.688 337.942C285.764 334.995 286.84 332.048 287.869 329.101C284.314 326.014 280.759 322.973 277.157 319.886C267.24 311.465 257.416 303.326 247.639 295.42C251.709 289.713 255.545 285.41 258.352 282.462C266.632 273.808 274.865 267.961 281.273 263.47C283.472 261.927 285.343 260.71 286.559 259.915C280.525 255.284 275.8 254.723 272.807 255.003Z" fill="#494949"/>
  <path opacity="0.08" d="M274.678 267.212C270.655 268.148 265.275 269.972 259.802 273.621C246.423 282.556 241.932 296.215 240.623 300.893C247.827 306.507 255.264 312.167 262.983 317.827C270.468 323.347 277.905 328.586 285.156 333.638C286.232 332.095 287.308 330.504 288.337 328.96C278.373 321.71 268.035 313.336 257.697 303.747C254.422 300.753 251.288 297.712 248.294 294.718C249.932 292.567 251.709 290.368 253.58 288.123C260.597 279.796 267.801 272.919 274.678 267.212Z" fill="#494949"/>
  <path d="M363.23 325.312C368.188 329.99 373.194 334.714 378.152 339.392C376.843 369.237 379.322 376.254 381.941 376.768C386.011 377.564 392.981 363.483 396.022 352.397C398.314 343.976 398.548 336.585 398.314 331.58C390.549 324.657 382.783 317.733 375.018 310.763C371.089 315.628 367.159 320.493 363.23 325.312Z" fill="#161616" stroke="#161616" stroke-width="2" stroke-miterlimit="10"/>
  <path d="M265.883 241.156C266.304 248.922 271.731 253.646 271.731 253.646C275.099 256.593 278.888 257.389 280.759 257.622C282.256 258.231 283.753 258.885 285.296 259.494C287.635 262.862 291.097 267.633 295.681 273.059C301.763 280.357 309.949 289.058 329.97 305.524C339.84 313.617 352.564 323.581 367.955 334.527C370.153 333.451 372.773 331.86 375.392 329.521C381.146 324.423 383.813 318.482 385.029 315.114C382.316 312.494 378.293 308.565 373.615 303.7C352.845 282.228 338.998 263.844 328.426 249.717C321.456 240.408 312.522 228.011 302.651 213.042C280.057 219.217 265.322 231.192 265.883 241.156Z" fill="white"/>
  <path d="M273.134 255.424C276.876 256.734 280.572 257.997 284.314 259.307C285.156 259.587 285.53 258.231 284.688 257.95C280.946 256.64 277.25 255.377 273.508 254.068C272.666 253.787 272.292 255.143 273.134 255.424Z" fill="black"/>
  <path d="M282.77 257.903C300.359 282.088 323.14 301.642 346.764 319.745C353.547 324.938 360.423 330.083 367.3 335.182C368.048 335.743 368.703 334.48 368.001 333.966C344.331 316.424 320.521 298.648 300.406 277.036C294.559 270.768 289.085 264.125 284.033 257.202C283.472 256.5 282.256 257.202 282.77 257.903Z" fill="black"/>
  <path d="M310.37 225.299C326.929 250.699 345.594 274.65 366.177 296.917C372.118 303.372 378.246 309.641 384.467 315.769C385.122 316.424 386.105 315.395 385.45 314.786C363.791 293.549 343.957 270.487 326.181 245.928C321.129 238.958 316.264 231.848 311.539 224.597C311.071 223.848 309.855 224.55 310.37 225.299Z" fill="black"/>
  <path d="M383.672 314.88C380.959 322.926 375.72 330.41 367.814 333.966C366.972 334.34 367.721 335.556 368.516 335.182C376.749 331.486 382.175 323.628 384.982 315.254C385.309 314.412 383.953 314.038 383.672 314.88Z" fill="black"/>
  <path opacity="0.09" d="M310.417 224.55C307.75 220.948 305.505 218.001 304.008 216.083C302.511 218.843 300.453 223.474 300.266 229.228C299.845 242.232 309.388 247.799 336.753 278.112C348.682 291.303 354.997 299.256 370.387 314.973C373.989 318.622 377.03 321.663 379.228 323.815C380.912 320.868 382.596 317.92 384.327 314.973C369.498 300.098 357.757 286.672 348.962 276.053C340.495 265.809 332.917 256.64 325.105 245.226C323.094 242.373 317.995 234.748 310.417 224.55Z" fill="#494949"/>
  <path opacity="0.09" d="M318.696 237.695C319.351 240.923 320.708 246.396 323.374 252.758C331.093 270.908 342.507 278.58 363.043 301.267C366.972 305.618 373.053 312.494 380.164 321.382C381.801 319.043 383.438 316.751 385.076 314.412C383.579 313.009 381.193 310.81 378.293 308.003C372.96 302.858 358.505 288.497 330.906 253.459C327.912 249.717 323.702 244.291 318.696 237.695Z" fill="#494949"/>
  <path d="M166.852 196.342C165.917 196.717 164.513 197.512 160.35 204.201C155.859 211.405 152.819 216.317 150.573 224.082C148.609 231.006 148.141 237.321 148.281 242.466C148.609 243.963 148.843 246.162 148.094 248.594C147.112 251.682 145.334 252.43 141.966 256.64C140.61 258.324 138.364 261.178 136.587 265.06C134.622 269.411 135.604 269.972 133.733 274.229C131.488 279.328 128.166 282.836 127.605 283.398C124.518 286.626 123.021 286.719 121.664 289.526C120.12 292.707 120.588 295.701 120.729 296.589C120.822 297.244 121.804 302.951 125.126 303.653C126.015 303.84 127.418 303.747 127.979 302.905C128.868 301.595 126.81 299.77 126.436 296.589C126.108 293.689 127.371 291.35 128.166 289.9C130.552 285.456 133.312 286.111 135.838 282.415C138.271 278.767 135.978 277.644 138.317 270.767C139.627 266.932 140.937 263.096 144.445 260.242C146.036 258.932 147.58 258.231 149.03 256.032C150.293 254.114 150.761 252.196 150.948 250.887C153.52 255.003 156.234 257.669 158.198 259.307C160.818 261.459 163.812 263.985 166.338 263.049C167.694 262.534 168.911 260.991 168.677 259.915C168.536 259.307 167.975 259.12 166.525 257.81C166.525 257.81 165.964 257.295 164.701 255.939C163.859 255.05 162.642 253.413 161.566 250.325C161.987 249.857 163.063 248.828 164.514 248.735C166.104 248.688 167.32 249.811 168.536 251.027C170.829 253.272 170.735 254.629 172.185 255.985C173.308 257.061 175.366 258.184 179.436 257.903C179.249 257.389 178.921 256.547 178.5 255.611C177.05 252.477 176.302 252.15 176.208 250.84C176.161 249.811 176.582 249.53 178.5 246.255C180.138 243.449 180.933 242.045 180.98 241.297C181.214 238.537 178.828 237.601 178.313 234.42C177.845 231.754 179.015 229.602 179.857 227.918C184.722 218.048 187.809 211.779 186.921 207.055C185.564 199.664 173.776 193.442 166.852 196.342Z" fill="#161616"/>
  <path d="M164.701 198.027C157.918 204.95 153.567 213.744 150.667 222.913C147.86 231.848 145.755 242.045 150.199 250.793C150.62 251.588 151.836 250.887 151.415 250.091C147.018 241.484 149.404 231.286 152.257 222.539C155.064 213.838 159.228 205.605 165.683 199.009C166.291 198.354 165.309 197.372 164.701 198.027Z" fill="#161616"/>
  <path d="M157.684 238.443C158.245 238.163 158.807 237.929 159.368 237.648C159.789 237.882 160.21 238.163 160.631 238.396C161.145 238.864 161.613 239.472 161.941 240.08C162.596 241.203 162.923 242.56 162.83 243.87C162.642 246.396 160.818 248.36 160.35 250.793C160.07 252.29 161.052 253.366 161.894 254.488C163.344 256.406 165.028 258.184 166.852 259.774C167.507 260.382 168.537 259.4 167.835 258.792C166.665 257.716 165.496 256.64 164.467 255.424C162.783 253.506 161.286 251.869 162.455 249.202C163.484 246.863 164.56 244.665 164.093 241.998C163.718 239.94 162.549 237.835 160.724 236.712C159.181 235.777 157.31 235.964 156.468 237.695C156.047 238.537 157.263 239.238 157.684 238.443Z" fill="#161616"/>
  <path d="M150.293 250.98C153.006 255.33 156.748 258.932 161.286 261.318C162.642 262.02 165.215 263.657 166.852 262.955C168.396 262.3 168.116 260.429 167.694 259.166C167.414 258.324 166.057 258.698 166.338 259.54C167.414 262.955 162.876 260.57 161.987 260.102C160.537 259.353 159.181 258.464 157.871 257.435C155.298 255.424 153.193 252.991 151.462 250.231C151.041 249.53 149.825 250.231 150.293 250.98Z" fill="#161616"/>
  <path d="M182.523 208.037C179.763 217.299 178.033 226.842 177.237 236.479C177.191 236.759 177.471 237.087 177.752 237.134C180.699 237.929 180.278 241.578 179.202 243.636C178.126 245.6 176.442 247.238 175.6 249.343C174.103 253.132 178.547 254.348 178.454 257.669C178.688 257.436 178.921 257.202 179.155 256.968C174.945 256.734 171.39 254.488 169.285 250.84C167.788 248.22 166.057 247.659 163.063 247.846C162.175 247.893 162.175 249.296 163.063 249.249C164.186 249.202 165.543 249.062 166.572 249.623C167.461 250.138 167.741 251.027 168.209 251.822C169.004 253.179 170.033 254.395 171.25 255.377C173.542 257.248 176.208 258.184 179.109 258.371C179.483 258.371 179.81 258.044 179.81 257.669C179.857 255.705 178.547 254.535 177.471 253.038C175.226 249.904 178.921 247.004 180.372 244.337C181.962 241.437 181.915 236.759 178.079 235.777C178.267 236.011 178.407 236.245 178.594 236.432C179.342 226.889 181.12 217.533 183.833 208.365C184.114 207.569 182.757 207.195 182.523 208.037Z" fill="#161616"/>
  <path d="M147.814 242.887C148.141 245.694 147.767 248.454 146.41 250.98C145.147 253.366 143.089 255.096 141.077 256.921C137.522 260.242 135.885 263.891 134.762 268.569C133.546 273.527 132.096 277.503 128.494 281.246C125.781 284.006 122.6 286.578 120.916 290.18C119.278 293.689 119.512 297.759 121.617 301.033C122.834 302.951 126.997 306.787 128.587 303.138C129.242 301.641 128.494 299.77 127.979 298.32C127.511 297.057 126.903 295.794 126.903 294.391C126.903 292.426 128.026 290.742 129.336 289.385C132.517 286.064 136.587 284.193 137.99 279.468C138.785 276.802 138.224 274.135 138.411 271.422C138.645 268.054 140.235 265.201 142.668 262.908C146.363 259.4 151.275 256.5 151.275 250.793C151.275 249.904 149.872 249.904 149.872 250.793C149.825 256.266 144.492 258.979 141.124 262.441C138.505 265.107 137.008 268.475 136.961 272.217C136.914 274.697 137.335 277.036 136.493 279.421C135.557 282.134 133.593 283.959 131.441 285.736C128.681 287.935 125.5 290.508 125.5 294.391C125.5 296.262 126.436 297.946 126.997 299.723C127.137 300.191 127.652 301.454 127.418 301.828C126.95 301.875 126.436 301.969 125.968 302.015C125.126 302.53 124.471 302.436 124.003 301.735C122.974 301.08 122.085 299.115 121.711 297.992C120.214 293.595 122.272 289.666 125.219 286.485C127.699 283.772 130.599 281.48 132.657 278.392C134.856 275.118 135.511 271.235 136.446 267.493C137.148 264.78 138.084 262.16 139.955 260.008C141.592 258.09 143.65 256.64 145.334 254.769C148.328 251.494 149.685 247.237 149.17 242.887C149.123 241.998 147.72 241.998 147.814 242.887Z" fill="#161616"/>
  <path d="M117.454 185.911C116.472 186.472 114.647 187.454 114.273 189.513C113.805 191.805 115.443 193.676 115.676 193.91C115.396 194.237 114.554 195.22 114.46 196.717C114.367 199.196 116.565 200.646 116.659 200.74C116.565 200.833 115.209 202.237 115.676 204.154C116.051 205.792 117.501 206.493 117.688 206.54C117.594 206.821 117.267 208.037 117.875 209.16C118.811 210.844 121.056 210.75 121.29 210.75C122.88 210.657 124.377 209.581 125.079 207.944C125.968 208.458 128.307 209.674 131.488 209.347C133.64 209.113 135.23 208.271 136.072 207.756C137.756 210.704 140.376 214.68 144.258 218.749C147.673 222.305 154.035 228.994 163.484 231.754C175.273 235.216 185.704 230.725 191.692 228.152C207.784 221.229 215.783 208.505 218.73 203.733C223.689 195.594 225.42 188.624 226.916 182.309C229.349 172.298 228.507 168.369 227.712 166.077C227.244 164.673 224.484 156.627 218.122 155.692C212.93 154.896 208.626 159.34 208.111 159.902C206.334 161.773 205.398 164.252 203.527 169.117C202.591 171.596 201.983 173.468 201.703 174.31C198.662 184.18 197.118 189.092 196.697 190.121C195.575 192.928 192.908 199.336 186.5 204.342C180.372 209.113 173.963 210.142 171.109 210.563C166.806 211.171 161.52 211.92 155.906 209.16C149.638 206.072 146.831 200.459 146.083 198.962C143.837 194.331 143.416 189.185 143.089 185.537C142.668 180.859 142.995 177.21 140.282 174.31C139.768 173.795 138.551 172.485 137.288 172.719C135.464 173.093 134.435 176.602 133.499 179.923C132.704 182.73 132.938 183.057 132.283 183.712C130.926 185.069 129.196 184.367 123.255 184.695C119.793 184.928 118.577 185.303 117.454 185.911Z" fill="white"/>
  <path d="M127.137 183.899C122.085 182.963 113.197 184.273 113.899 191.197C114.507 197.418 121.898 198.494 126.342 195.781C127.09 195.313 126.389 194.097 125.64 194.565C121.945 196.81 115.255 196.202 115.255 190.588C115.255 185.162 122.88 184.554 126.763 185.256C127.652 185.443 128.026 184.086 127.137 183.899Z" fill="black"/>
  <path d="M115.115 193.489C110.063 199.663 122.226 207.429 125.827 199.663C126.202 198.868 124.985 198.12 124.611 198.962C121.804 204.949 112.449 198.962 116.144 194.471C116.706 193.816 115.723 192.787 115.115 193.489Z" fill="black"/>
  <path d="M115.396 199.757C114.32 202.19 115.068 205.277 117.548 206.54C119.98 207.803 123.021 206.634 124.284 204.295C124.705 203.5 123.489 202.798 123.068 203.593C122.132 205.23 120.027 206.166 118.249 205.324C116.472 204.482 115.817 202.19 116.612 200.459C116.986 199.664 115.77 198.962 115.396 199.757Z" fill="black"/>
  <path d="M116.518 206.025C116.331 208.505 117.781 210.75 120.308 211.264C122.646 211.732 124.798 210.189 125.594 208.084C125.921 207.242 124.564 206.867 124.237 207.709C123.629 209.3 121.945 210.329 120.261 209.814C118.53 209.3 117.828 207.709 117.922 206.025C117.969 205.136 116.565 205.136 116.518 206.025Z" fill="black"/>
  <path d="M120.962 190.729C122.179 190.588 123.442 190.635 124.471 191.337C125.453 191.992 126.015 193.302 125.453 194.378C125.032 195.173 126.248 195.874 126.669 195.079C127.418 193.629 127.09 191.945 125.968 190.776C124.705 189.419 122.693 189.138 120.916 189.325C120.074 189.466 120.074 190.869 120.962 190.729Z" fill="black"/>
  <path d="M125.313 209.019C127.745 208.131 130.084 210.142 132.61 209.861C134.528 209.627 136.212 208.598 137.803 207.663C138.551 207.195 137.85 205.979 137.101 206.447C134.715 207.897 132.657 208.926 129.804 208.084C128.073 207.569 126.716 207.008 124.939 207.663C124.097 207.99 124.424 209.347 125.313 209.019Z" fill="black"/>
  <path d="M126.763 185.115C129.196 185.957 132.47 186.098 133.827 183.431C134.575 181.934 134.107 180.11 134.435 178.519C134.809 176.368 136.025 174.59 137.709 173.233C138.411 172.672 137.429 171.69 136.727 172.251C134.903 173.748 133.593 175.806 133.125 178.145C132.891 179.455 133.219 180.999 132.844 182.262C132.002 184.788 129.196 184.46 127.231 183.759C126.295 183.478 125.921 184.835 126.763 185.115Z" fill="black"/>
  <path d="M136.68 173.327C140.656 173.842 141.171 180.531 141.826 183.572C142.621 187.548 143.042 191.571 143.791 195.547C145.007 201.909 148.702 206.961 154.596 209.815C160.771 212.762 167.788 212.621 174.244 210.844C180.886 208.973 187.763 205.605 192.066 200.038C192.628 199.336 191.645 198.354 191.084 199.056C186.593 204.856 179.296 208.271 172.279 209.908C165.215 211.546 157.497 210.937 151.603 206.353C145.241 201.441 145.1 194.05 143.837 186.706C143.229 183.244 142.715 179.502 141.452 176.228C140.656 174.169 139.393 172.298 137.101 171.971C136.166 171.83 135.791 173.187 136.68 173.327Z" fill="black"/>
  <path d="M135.651 208.598C141.311 215.521 146.784 223.427 154.269 228.526C161.613 233.485 170.688 233.999 179.202 232.596C196.51 229.695 211.199 217.954 219.619 202.798C224.437 194.19 227.291 184.647 228.554 174.871C228.647 173.982 227.244 173.982 227.15 174.871C224.999 191.571 217.701 207.943 204.697 218.983C198.288 224.409 190.663 228.479 182.477 230.444C174.01 232.502 164.233 232.783 156.514 228.245C148.281 223.427 142.527 214.82 136.633 207.569C136.072 206.914 135.09 207.897 135.651 208.598Z" fill="black"/>
  <path d="M218.777 155.504C214.894 153.961 210.778 155.972 208.065 158.826C204.884 162.1 203.293 166.451 202.124 170.754C200.767 175.76 199.551 180.718 197.633 185.536C195.575 190.729 192.955 195.641 189.961 200.318C189.447 201.067 190.663 201.769 191.177 201.02C195.996 193.582 199.691 185.49 201.983 176.929C203.2 172.438 203.995 167.76 206.24 163.691C208.486 159.574 213.257 154.803 218.403 156.861C219.245 157.188 219.619 155.832 218.777 155.504Z" fill="black"/>
  <path d="M123.068 205.277C124.377 205.371 124.097 207.569 123.863 208.364C123.582 209.206 124.939 209.581 125.219 208.739C125.827 206.961 125.406 204.061 123.068 203.874C122.179 203.827 122.179 205.23 123.068 205.277Z" fill="black"/>
  <path d="M123.863 200.973C124.143 202.096 123.722 203.265 122.834 203.92C122.085 204.435 122.787 205.651 123.535 205.137C124.985 204.107 125.687 202.33 125.219 200.599C125.032 199.71 123.676 200.084 123.863 200.973Z" fill="black"/>
  <path d="M124.658 196.108C125.921 196.717 125.079 198.728 124.471 199.523C123.91 200.225 125.126 200.927 125.687 200.225C126.763 198.822 127.324 195.828 125.36 194.892C124.564 194.518 123.863 195.734 124.658 196.108Z" fill="black"/>
  <path opacity="0.11" d="M115.022 196.295C115.77 195.874 116.986 198.494 120.12 199.804C121.29 200.272 122.74 200.599 129.383 199.804C131.534 199.523 134.341 199.149 137.709 198.541C138.364 201.207 139.721 205.23 142.481 209.394C143.65 211.124 148.375 217.861 157.497 221.837C167.273 226.14 176.115 224.69 179.53 224.082C182.43 223.568 190.523 222.024 197.726 215.755C202.545 211.592 205.632 206.54 210.17 193.395C213.257 184.46 216.999 172.064 219.759 156.674C221.63 158.592 224.531 162.053 226.168 167.199C226.963 169.678 227.712 173.327 227.104 179.034C225.841 191.337 219.666 201.581 215.923 206.821C212.041 212.294 205.118 221.743 192.3 227.59C190.569 228.386 180.793 232.643 168.349 232.081C165.496 231.941 162.876 231.801 159.649 230.631C156.14 229.368 152.632 226.094 145.662 219.638C142.761 216.972 139.908 214.165 137.008 210.095C136.446 209.3 135.978 208.598 135.651 208.13C134.669 208.785 133.219 209.534 131.581 209.347C129.383 209.16 128.634 207.569 126.81 207.85C125.219 208.084 125.219 209.394 123.301 210.095C121.804 210.61 119.699 210.563 118.296 209.487C117.267 208.692 117.127 207.803 115.957 202.751C114.834 197.792 114.507 196.576 115.022 196.295Z" fill="#494949"/>
  <path d="M168.49 184.133C167.601 184.32 167.273 186.098 166.712 188.858C166.385 190.542 166.244 191.992 166.198 193.021C164.326 195.219 164.139 197.231 164.093 198.026C164.046 199.663 164.607 200.926 165.683 203.265C166.431 204.949 167.227 206.259 167.788 207.148C165.777 207.616 164.373 208.926 164.28 210.329C164.186 211.686 165.402 212.761 165.87 213.136C167.975 214.96 169.519 213.604 172.185 215.054C174.337 216.223 174.15 217.533 177.284 219.264C179.249 220.34 179.857 220.106 180.091 219.965C180.886 219.451 180.605 217.767 180.465 216.644C180.278 215.288 179.717 213.229 178.173 210.844C179.997 210.189 181.822 209.534 183.599 208.926C182.29 209.066 182.009 209.113 182.009 209.113C182.009 209.066 185.237 207.756 187.997 208.926C190.289 209.908 190.476 211.966 192.394 212.107C193.47 212.2 194.686 211.592 195.2 210.703C196.276 208.879 194.265 206.212 193.797 205.604C191.879 203.078 189.072 202.33 187.809 202.096C188.23 201.16 188.698 199.663 188.792 197.792C188.885 194.611 187.576 192.272 186.967 191.29C186.125 188.53 185.33 185.77 184.488 182.963C183.178 186.004 181.728 186.94 180.605 187.173C179.342 187.454 178.641 186.846 176.582 187.173C174.618 187.501 174.524 188.109 173.402 188.062C170.782 187.782 169.893 183.852 168.49 184.133Z" fill="#161616"/>
  <path d="M169.659 198.915C170.454 199.851 171.717 200.459 172.981 200.131C174.103 199.851 174.852 198.915 174.992 197.792C175.039 197.325 174.337 197.325 174.29 197.792C174.197 198.775 173.355 199.477 172.372 199.523C171.484 199.57 170.735 199.056 170.174 198.401C169.846 198.073 169.379 198.588 169.659 198.915Z" fill="white"/>
  <path d="M179.67 197.372C180.839 199.056 184.628 199.196 184.488 196.53C184.441 196.062 183.74 196.062 183.786 196.53C183.927 198.447 181.073 198.167 180.278 196.997C179.997 196.623 179.389 196.997 179.67 197.372Z" fill="white"/>
  <path d="M177.845 202.564C177.845 202.611 177.892 202.657 177.892 202.704C178.033 202.751 178.22 202.798 178.36 202.844C178.266 202.657 178.126 202.564 177.892 202.564C178.079 202.517 178.22 202.423 178.407 202.377C178.36 202.33 178.313 202.236 178.266 202.19C178.033 202.283 177.845 202.377 177.612 202.47C177.939 202.985 177.799 203.92 177.612 204.435C177.378 205.137 176.395 206.072 175.787 205.137C175.553 204.762 174.945 205.09 175.179 205.511C175.787 206.446 177.05 206.4 177.752 205.604C178.454 204.809 178.828 203.078 178.22 202.143C178.033 201.815 177.471 202.002 177.565 202.423C177.658 202.704 177.799 202.891 178.033 203.032C178.22 203.172 178.5 203.032 178.547 202.844C178.641 202.423 178.5 201.441 177.845 201.722C177.237 201.956 177.471 202.891 177.752 203.265C177.845 203.406 178.079 203.499 178.22 203.406C178.734 203.032 178.734 202.33 178.173 202.049C177.799 201.769 177.471 202.377 177.845 202.564Z" fill="white"/>
  <path d="M177.892 202.704C178.079 203.78 178.454 205.09 179.717 205.277C180.98 205.464 181.354 204.248 181.354 203.265C181.354 202.798 180.652 202.798 180.652 203.265C180.652 203.967 180.418 204.949 179.483 204.482C178.781 204.154 178.688 203.219 178.594 202.517C178.5 202.096 177.799 202.283 177.892 202.704Z" fill="white"/>
  <path d="M164.981 199.149C165.87 194.284 169.379 190.121 174.15 188.717C178.921 187.314 184.441 189.232 186.64 193.816C187.014 194.611 188.23 193.91 187.856 193.114C185.47 188.203 179.623 186.004 174.431 187.22C168.911 188.53 164.654 193.255 163.625 198.775C163.484 199.663 164.841 200.038 164.981 199.149Z" fill="#161616"/>
  <path d="M167.461 192.085C167.414 189.746 167.835 187.407 168.817 185.302C168.911 185.115 169.004 184.975 169.051 184.788C169.379 184.226 169.425 184.133 169.145 184.507C168.864 184.741 168.911 184.928 169.332 185.209C169.425 185.349 169.566 185.536 169.659 185.677C170.361 186.799 170.969 187.969 171.484 189.185C171.811 190.027 173.168 189.653 172.84 188.811C172.372 187.688 170.221 181.981 168.396 183.244C167.507 183.852 166.946 185.911 166.665 186.893C166.151 188.577 165.964 190.355 166.01 192.132C166.104 192.974 167.507 192.974 167.461 192.085Z" fill="#161616"/>
  <path d="M181.728 188.296C182.196 187.501 182.664 186.706 183.178 185.911C183.412 185.583 183.74 185.256 183.88 184.881C184.207 184.694 184.254 184.507 184.067 184.273C183.88 183.946 183.927 184.039 184.161 184.554C184.956 186.565 185.517 188.53 185.751 190.729C185.845 191.618 187.248 191.618 187.154 190.729C187.014 189.185 186.733 187.688 186.312 186.191C186.032 185.349 185.611 183.431 184.816 182.917C184.207 182.543 183.693 182.823 183.272 183.338C182.196 184.601 181.354 186.144 180.512 187.595C180.044 188.343 181.26 189.045 181.728 188.296Z" fill="#161616"/>
  <path d="M163.718 198.401C163.391 206.259 170.501 212.996 178.407 211.358C182.056 210.61 185.424 208.224 187.155 204.903C188.979 201.394 190.008 195.828 187.622 192.366C187.108 191.618 185.891 192.319 186.406 193.068C188.511 196.202 187.482 201.348 185.798 204.482C184.254 207.335 181.214 209.347 178.033 210.002C170.969 211.405 164.841 205.324 165.122 198.401C165.122 197.465 163.718 197.465 163.718 198.401Z" fill="#161616"/>
  <path d="M164.701 210.75C165.823 206.587 171.437 206.821 174.384 208.645C177.518 210.516 179.109 214.165 179.436 217.673C179.53 218.656 179.904 219.638 178.267 219.03C177.658 218.796 176.863 217.907 176.395 217.439C175.553 216.597 174.805 215.709 173.869 215.007C172.84 214.212 171.764 213.744 170.501 213.51C168.537 213.136 164.981 213.37 164.794 210.563C164.747 209.674 163.344 209.674 163.391 210.563C163.531 212.387 164.701 213.604 166.385 214.212C167.695 214.68 169.145 214.586 170.501 214.913C172.185 215.334 173.308 216.223 174.477 217.439C175.647 218.609 177.658 221.229 179.67 220.854C181.354 220.527 180.98 218.609 180.839 217.346C180.325 212.855 177.939 208.411 173.542 206.68C169.846 205.23 164.514 206.072 163.391 210.423C163.11 211.265 164.467 211.639 164.701 210.75Z" fill="#161616"/>
  <path d="M183.365 204.669C185.283 202.096 189.634 203.125 191.645 204.856C192.815 205.838 193.61 207.195 193.984 208.692C194.078 209.16 194.312 210.142 194.171 210.657C193.704 212.013 192.721 211.592 191.879 210.937C190.71 210.048 189.821 208.785 188.371 208.224C187.669 207.943 186.967 207.897 186.219 207.943C185.517 207.943 184.862 208.13 184.161 208.037C182.851 207.85 181.026 206.634 183.225 204.95C183.927 204.388 182.944 203.406 182.243 203.967C181.167 204.809 180.605 206.072 181.073 207.429C181.728 209.206 183.412 209.581 185.143 209.487C186.874 209.393 187.996 209.44 189.4 210.61C190.055 211.171 190.616 211.826 191.365 212.341C192.347 213.042 193.797 213.697 194.873 212.715C197.352 210.423 194.499 205.324 192.534 203.733C189.727 201.441 184.582 200.786 182.243 204.014C181.635 204.669 182.851 205.371 183.365 204.669Z" fill="#161616"/>
  <path d="M167.414 206.867C170.454 205.885 175.086 207.803 176.957 210.282C177.097 210.469 177.378 210.282 177.237 210.095C175.273 207.429 170.595 205.464 167.32 206.54C167.086 206.587 167.18 206.914 167.414 206.867Z" fill="white"/>
  <path d="M183.693 204.856C185.049 203.265 187.014 202.564 189.072 202.985C189.306 203.031 189.4 202.704 189.166 202.657C187.014 202.236 184.862 202.938 183.459 204.622C183.319 204.809 183.553 205.043 183.693 204.856Z" fill="white"/>
  <path d="M169.145 184.928C169.612 186.144 169.94 187.361 170.08 188.624C170.174 188.577 170.267 188.53 170.361 188.483C170.127 188.249 169.893 188.109 169.612 187.969C169.472 187.922 169.332 187.969 169.332 188.109C169.332 188.53 169.285 188.904 169.285 189.325C169.379 189.279 169.472 189.232 169.566 189.185C168.911 188.437 168.396 190.121 168.209 190.448C168.116 190.635 168.396 190.822 168.49 190.635C168.537 190.542 169.145 189.232 169.285 189.419C169.379 189.559 169.566 189.419 169.566 189.279C169.566 188.858 169.612 188.483 169.612 188.062C169.519 188.109 169.425 188.156 169.332 188.203C169.612 188.296 169.8 188.437 169.987 188.67C170.08 188.764 170.314 188.717 170.267 188.53C170.08 187.22 169.8 185.957 169.285 184.741C169.379 184.647 169.051 184.741 169.145 184.928Z" fill="white"/>
  <path d="M183.599 184.32C183.085 185.303 182.804 186.285 182.71 187.408C182.71 187.501 182.851 187.595 182.944 187.595C183.599 187.408 183.693 187.922 183.74 188.484C183.74 188.624 183.927 188.718 184.02 188.624C184.254 188.998 184.441 189.326 184.675 189.7C184.628 189.934 185.003 190.027 185.003 189.793C185.096 189.139 184.675 187.455 183.786 188.39C183.88 188.437 183.974 188.484 184.067 188.53C184.02 188.109 183.927 187.735 183.833 187.314C183.833 187.221 183.74 187.174 183.646 187.174C183.319 187.174 183.085 187.221 182.804 187.314C182.898 187.361 182.944 187.408 183.038 187.501C183.085 186.472 183.365 185.537 183.88 184.601C184.02 184.274 183.693 184.086 183.599 184.32Z" fill="white"/>
  <path d="M212.93 156.58C213.585 161.071 214.848 168.181 217.467 176.602C222.987 194.19 229.489 201.722 238.097 222.117C240.249 227.216 243.289 234.888 246.283 244.571C251.85 246.396 262.188 248.875 274.818 246.676C295.588 243.074 307.797 229.321 311.212 225.158C304.102 212.06 296.944 197.886 289.974 182.683C283.051 167.62 277.017 153.119 271.777 139.319C267.38 137.682 255.873 134.033 241.745 137.494C224.858 141.564 215.549 153.119 212.93 156.58Z" fill="#FD4925"/>
  <path opacity="0.13" d="M254.001 135.904C255.779 139.646 258.024 144.745 260.41 150.92C267.895 170.567 270.608 186.706 271.59 192.46C273.695 204.341 275.52 222.772 272.526 246.442C279.028 246.255 283.846 244.758 286.887 243.589C295.588 240.127 301.903 234.093 307.984 228.245C309.388 226.936 310.463 225.766 311.165 225.064C309.154 221.603 306.113 216.176 302.558 209.394C292.266 189.84 285.53 173.608 279.87 159.855C277.859 155.037 275.099 148.113 271.871 139.74C269.298 138.664 266.07 137.588 262.281 136.886C259.194 136.278 256.387 135.998 254.001 135.904Z" fill="#494949"/>
  <path opacity="0.1" d="M284.969 173C285.764 181.373 286.419 188.39 286.887 193.442C288.665 213.229 288.992 218.702 289.132 222.211C289.507 230.491 289.507 237.274 289.46 241.718C292.36 240.688 296.102 239.004 299.985 236.291C304.85 232.876 308.125 229.134 310.23 226.374C301.809 208.551 293.389 190.775 284.969 173Z" fill="#494949"/>
  <path d="M251.756 127.671C249.511 128.326 248.294 131.554 247.546 134.875C246.049 141.658 246.844 147.459 247.125 149.47C248.481 158.405 250.914 165.094 251.709 167.293C253.767 172.719 256.574 179.97 262.702 187.688C266.211 192.086 269.205 195.875 274.724 198.681C277.952 200.365 284.642 203.78 291.518 201.067C291.845 200.927 298.582 198.167 300.312 192.273C300.687 190.963 300.78 189.653 300.921 187.08C301.014 185.537 301.061 182.823 300.733 179.455C300.266 175.011 299.283 171.55 298.535 169.07C295.214 158.077 293.576 152.604 290.115 147.833C287.261 143.903 284.033 139.413 278.701 138.805C278.233 138.758 272.853 138.243 269.672 141.986C267.474 144.605 267.614 147.833 267.661 149.985C267.801 154.101 269.392 157.048 271.871 161.586C274.35 166.077 275.333 166.638 278.28 171.971C282.303 179.268 281.882 179.97 281.694 180.157C280.899 180.859 277.718 178.66 277.017 178.146C276.362 177.678 275.426 177.023 274.257 175.76C270.608 171.69 268.456 165.562 268.456 165.562C266.538 161.773 264.012 156.393 261.439 149.564C262.234 146.523 263.451 144.371 264.433 142.968C266.024 140.723 267.801 139.179 268.222 136.372C268.409 135.296 268.316 134.361 268.222 133.752C269.017 133.004 269.251 131.881 268.83 130.946C268.316 129.87 267.053 129.355 265.836 129.729C265.836 129.589 265.696 128.373 264.62 127.718C263.731 127.157 262.515 127.25 261.626 127.905C260.223 126.829 259.054 126.549 258.211 126.502C257.229 126.455 256.761 126.689 254.422 127.11C252.458 127.624 252.317 127.531 251.756 127.671Z" fill="white"/>
  <path d="M263.497 147.412C264.76 144.277 266.351 141.424 268.082 138.524C268.971 137.027 270 135.156 268.783 133.518C266.023 129.963 262.281 134.501 261.112 136.84C260.691 137.635 261.907 138.337 262.328 137.541C263.03 136.138 263.825 134.407 265.462 133.939C265.93 133.705 266.398 133.705 266.912 133.846C267.053 134.922 267.193 135.998 267.38 137.073C267.24 137.682 266.398 138.664 266.07 139.225C264.573 141.705 263.357 144.324 262.234 146.991C261.813 147.879 263.17 148.207 263.497 147.412Z" fill="black"/>
  <path d="M248.201 153.446C247.499 148.441 247.406 143.342 247.967 138.337C248.481 133.752 249.464 126.782 255.826 128.092C256.715 128.279 257.089 126.923 256.2 126.736C251.195 125.706 248.06 129.262 247.218 133.799C245.955 140.395 245.909 147.131 246.844 153.821C246.985 154.709 248.341 154.335 248.201 153.446Z" fill="black"/>
  <path d="M254.048 131.881C254.563 130.665 255.124 129.402 256.106 128.466C257.79 126.829 259.942 127.718 261.767 128.607C262.562 129.028 263.264 127.811 262.468 127.39C260.55 126.408 258.399 125.473 256.34 126.548C254.563 127.484 253.627 129.402 252.879 131.133C252.504 132.022 253.721 132.723 254.048 131.881Z" fill="black"/>
  <path d="M258.211 132.302C259.942 130.057 262.234 127.718 265.228 129.495C266.024 129.963 266.725 128.747 265.93 128.279C262.375 126.174 259.381 128.466 257.229 131.273C256.668 132.021 257.65 133.004 258.211 132.302Z" fill="black"/>
  <path d="M261.346 133.331C262.234 132.396 263.17 131.413 264.386 130.946C265.836 130.338 268.503 130.712 267.941 132.91C267.754 133.799 269.064 134.173 269.298 133.285C269.766 131.367 268.503 129.589 266.585 129.262C264.012 128.794 262.001 130.665 260.363 132.349C259.755 133.004 260.738 133.986 261.346 133.331Z" fill="black"/>
  <path d="M261.907 146.71C260.27 150.218 262.281 153.773 263.685 157.001C265.649 161.539 267.708 166.076 270.234 170.286C273.508 175.806 280.619 185.723 288.056 180.063C288.758 179.502 288.056 178.286 287.355 178.847C280.198 184.32 273.555 173.28 270.655 168.181C268.971 165.188 267.474 162.1 266.07 158.966C264.667 155.832 261.533 150.92 263.17 147.412C263.497 146.616 262.281 145.868 261.907 146.71Z" fill="black"/>
  <path d="M267.941 143.155C263.825 157.142 276.455 167.994 281.086 179.97C281.414 180.812 282.77 180.437 282.443 179.595C277.952 167.994 265.322 157.048 269.298 143.529C269.532 142.64 268.175 142.266 267.941 143.155Z" fill="black"/>
  <path d="M246.797 153.072C249.183 166.17 254.75 178.566 262.936 189.092C266.912 194.144 271.45 199.055 277.718 201.114C283.051 202.845 290.395 203.733 295.354 200.506C300.78 197.044 301.482 189.98 301.716 184.133C301.763 183.244 300.359 183.244 300.312 184.133C300.032 191.664 298.348 199.991 289.413 201.067C281.18 202.049 273.508 198.775 267.941 192.834C257.603 181.841 250.82 167.48 248.107 152.698C248.014 151.809 246.657 152.183 246.797 153.072Z" fill="black"/>
  <path d="M268.877 145.026C270.374 139.038 277.578 138.617 282.069 141.237C286.653 143.903 289.787 148.721 292.079 153.353C294.465 158.218 296.196 163.457 297.88 168.602C299.798 174.497 301.248 180.671 300.266 186.893C300.125 187.782 301.482 188.156 301.622 187.267C302.745 180.157 300.967 173.28 298.675 166.544C296.57 160.416 294.512 154.101 291.003 148.581C288.056 143.903 283.659 139.038 277.859 138.243C273.368 137.635 268.596 140.067 267.474 144.652C267.287 145.54 268.643 145.915 268.877 145.026Z" fill="black"/>
  <path opacity="0.1" d="M253.487 127.063C257.229 125.566 260.878 127.203 261.767 127.624C259.147 131.086 253.58 139.459 253.113 151.294C252.411 168.135 262.468 179.315 266.024 183.291C270.608 188.39 276.596 195.033 284.314 194.097C288.664 193.583 292.781 190.682 294.886 186.987C296.991 183.291 296.851 179.268 294.325 168.883C290.442 153.166 286.185 143.95 286.793 143.67C287.401 143.389 292.454 151.294 296.243 161.212C296.617 162.241 299.751 170.567 300.874 182.028C301.575 189.092 300.967 191.992 299.517 194.565C297.272 198.541 293.623 200.319 292.22 200.927C286.559 203.313 281.133 201.628 278.56 200.74C269.345 197.652 264.433 190.168 259.475 182.636C251.85 170.988 249.745 161.024 247.733 151.435C246.33 144.792 245.394 137.074 248.902 131.414C249.511 130.244 250.867 128.139 253.487 127.063Z" fill="#494949"/>
  <path d="M185.938 104.282C185.798 106.48 186.593 108.959 188.277 113.918C190.148 119.485 192.16 125.426 197.212 131.273C200.44 135.015 204.369 139.6 211.058 140.909C216.344 141.938 220.788 140.442 223.034 139.506C223.548 140.909 224.25 142.406 225.139 143.95C227.478 148.067 230.378 150.967 232.67 152.885C234.401 152.698 237.769 151.996 240.669 149.376C242.915 147.318 243.991 144.886 244.646 143.295C245.441 141.424 245.862 139.787 246.049 138.617C244.646 137.775 243.102 136.652 241.605 135.109C236.927 130.337 235.664 124.677 235.29 121.964C235.898 116.584 236.553 111.158 237.161 105.778C237.863 105.872 239.36 105.966 240.669 105.077C242.12 104.094 242.4 102.457 242.774 100.633C243.149 98.8084 243.57 96.4695 242.541 93.8031C242.073 92.6336 240.576 88.8913 237.395 88.6574C235.243 88.4703 233.044 89.9205 231.781 92.1658C229.068 89.5462 223.268 84.9151 215.128 84.1667C201.048 82.8569 186.733 93.8499 185.938 104.282Z" fill="white"/>
  <path d="M206.708 125.66C206.334 126.642 207.41 128.045 208.205 128.747C210.404 130.665 214.286 130.571 217.093 129.262C221.022 127.437 222.285 123.508 222.847 121.73C223.502 119.765 224.344 117.193 222.987 114.9C221.818 112.889 219.759 112.187 218.964 111.953C218.169 113.591 217.561 114.807 217.093 115.602C216.532 116.584 216.344 116.912 216.017 117.66C215.549 118.643 215.502 119.017 214.848 119.906C212.181 123.367 208.532 124.63 208.532 124.63C207.69 124.818 206.942 125.005 206.708 125.66Z" fill="black"/>
  <path d="M186.687 109.895C190.382 121.449 195.013 134.922 206.942 140.348C211.807 142.547 217.607 142.968 222.566 140.816C228.133 138.43 231.407 132.91 233.653 127.577C236.6 120.607 237.863 113.029 237.395 105.498C237.348 104.609 235.945 104.609 235.992 105.498C236.459 113.357 235.056 121.262 231.735 128.42C228.507 135.39 223.408 140.956 215.222 140.863C198.756 140.676 192.066 122.525 187.95 109.568C187.763 108.632 186.453 109.006 186.687 109.895Z" fill="black"/>
  <path d="M232.296 93.4758C232.343 90.6691 235.243 88.9851 237.816 89.7803C240.202 90.5755 241.699 92.9145 242.213 95.2534C242.681 97.4988 242.494 100.118 241.792 102.27C241.231 104.048 240.529 104.983 238.377 104.983C237.629 104.983 236.88 104.703 236.085 104.703C235.196 104.703 235.196 106.106 236.085 106.106C237.676 106.106 239.219 106.855 240.763 106.059C241.886 105.498 242.541 104.375 243.008 103.206C244.225 100.025 244.365 95.7212 242.821 92.587C241.558 90.0142 238.845 87.8156 235.851 88.143C233.091 88.4237 230.939 90.6691 230.893 93.429C230.893 94.3646 232.296 94.3646 232.296 93.4758Z" fill="black"/>
  <path d="M235.056 119.11C234.916 126.829 238.33 134.22 244.412 139.038C245.113 139.6 246.096 138.617 245.394 138.056C239.593 133.472 236.319 126.548 236.459 119.11C236.459 118.222 235.056 118.222 235.056 119.11Z" fill="black"/>
  <path d="M222.987 140.068C224.765 144.979 227.665 149.283 231.548 152.745C232.202 153.353 233.232 152.37 232.53 151.762C228.788 148.441 226.028 144.371 224.297 139.693C224.016 138.851 222.66 139.226 222.987 140.068Z" fill="black"/>
  <path d="M231.875 153.212C235.898 154.662 239.921 151.247 242.4 148.394C245.02 145.4 247.312 141.517 246.189 137.448C245.955 136.559 244.599 136.933 244.833 137.822C245.768 141.377 243.663 144.839 241.371 147.412C239.219 149.844 235.711 153.119 232.202 151.856C231.407 151.528 231.033 152.885 231.875 153.212Z" fill="black"/>
  <path d="M191.926 104.983C191.318 103.253 192.721 101.382 193.75 100.165C195.294 98.2473 197.68 97.7328 199.457 99.6975C201.516 101.943 202.077 105.966 202.358 108.866C202.545 110.878 201.843 113.45 203.012 115.228C204.276 117.146 206.614 118.269 208.813 118.69C209.702 118.877 210.076 117.52 209.187 117.333C208.018 117.099 206.989 116.725 205.96 116.07C204.276 114.947 203.901 113.731 203.855 111.72C203.808 109.989 203.761 108.305 203.48 106.574C203.012 103.72 202.217 100.072 199.878 98.1538C197.914 96.5165 195.481 96.5633 193.563 98.2006C191.739 99.791 189.634 102.832 190.523 105.311C190.897 106.2 192.253 105.826 191.926 104.983Z" fill="black"/>
  <path d="M204.884 94.879C205.211 89.2188 212.275 87.1605 215.549 91.7916C216.064 92.5401 217.28 91.8384 216.765 91.0899C212.696 85.2894 203.901 87.7686 203.48 94.879C203.433 95.7678 204.837 95.7678 204.884 94.879Z" fill="black"/>
  <path d="M198.522 108.726C197.867 107.837 197.493 106.855 197.446 105.779C197.072 105.966 196.744 106.2 196.37 106.387C197.446 107.089 198.007 108.211 197.96 109.474C198.241 109.24 198.568 109.007 198.849 108.819C197.68 108.398 196.931 107.089 197.165 105.872C196.838 106.013 196.463 106.153 196.136 106.293C196.697 106.621 197.165 107.089 197.493 107.697C197.633 107.977 197.726 108.258 197.773 108.586C197.773 108.819 197.773 108.539 197.726 108.445C197.633 108.258 197.539 108.118 197.446 107.931C197.072 107.089 195.855 107.837 196.23 108.632C196.51 109.287 196.978 109.989 197.82 110.036C198.522 110.082 199.13 109.615 199.223 108.913C199.364 107.369 198.147 105.826 196.884 105.124C196.51 104.89 195.949 105.077 195.855 105.545C195.481 107.556 196.604 109.521 198.522 110.223C198.989 110.363 199.411 109.989 199.411 109.568C199.457 107.79 198.615 106.2 197.118 105.264C196.697 104.984 196.042 105.358 196.042 105.872C196.089 107.182 196.51 108.445 197.305 109.521C197.867 110.176 199.083 109.474 198.522 108.726Z" fill="black"/>
  <path d="M211.62 99.6975C211.386 99.4168 211.199 99.0894 211.105 98.7151C211.105 98.6216 211.012 98.0602 211.105 98.0135C211.199 97.9667 211.433 98.7151 211.479 98.7619C211.573 99.1361 211.526 99.5572 211.339 99.8846C211.667 99.791 211.994 99.6975 212.321 99.6507C211.152 98.9958 210.591 97.7795 210.778 96.4697C210.404 96.6569 210.076 96.8908 209.702 97.0779C211.012 97.6392 211.76 98.9958 211.433 100.399C211.713 100.259 211.994 100.072 212.275 99.9314C211.573 99.6975 211.012 99.0894 210.871 98.3409C210.871 98.2941 210.871 97.8731 210.825 97.8731C210.731 97.9199 210.637 97.9667 210.497 98.0135C210.544 98.107 210.637 98.2473 210.684 98.3409C210.871 98.8555 210.871 99.37 210.825 99.9314C211.246 99.7443 211.62 99.6039 212.041 99.4168C211.62 99.0894 211.292 98.7151 211.058 98.2006C210.637 97.4053 209.421 98.107 209.842 98.9022C210.123 99.4636 210.544 99.9781 211.058 100.399C211.573 100.82 212.181 100.54 212.275 99.8846C212.368 98.949 212.275 97.686 211.573 96.9843C211.012 96.423 209.983 96.3762 209.608 97.2182C208.86 98.8555 210.45 100.773 211.9 101.288C212.275 101.428 212.696 101.148 212.742 100.82C213.257 98.8555 212.275 96.7036 210.357 95.9084C209.842 95.6745 209.374 95.9552 209.281 96.5165C209.047 98.2941 209.983 100.025 211.526 100.914C211.807 101.101 212.321 101.007 212.509 100.68C212.883 99.791 212.976 98.9022 212.649 98.0135C212.368 97.3118 211.76 96.5633 210.965 96.6569C208.907 96.8907 209.795 99.8378 210.637 100.773C211.246 101.382 212.228 100.352 211.62 99.6975Z" fill="black"/>
  <path d="M223.829 139.927C223.829 139.974 223.829 139.974 223.782 140.021C224.063 139.88 224.344 139.693 224.624 139.553C224.578 139.553 224.531 139.506 224.484 139.506C224.624 139.834 224.765 140.208 224.905 140.535C224.999 140.348 226.262 139.74 226.636 139.413C227.478 138.711 228.179 137.775 228.834 136.887C230.285 134.969 231.36 132.864 232.249 130.665C231.781 130.525 231.36 130.431 230.893 130.291C229.489 134.314 228.507 139.927 224.577 142.313C224.905 142.64 225.232 142.968 225.56 143.295C226.495 141.892 227.431 140.442 228.367 139.038C228.788 138.383 227.805 137.588 227.244 138.196C226.495 138.992 225.7 139.834 224.952 140.629C225.279 140.956 225.607 141.284 225.934 141.611C226.636 140.769 227.291 139.88 227.899 138.992C228.367 138.337 227.337 137.541 226.776 138.15C226.121 138.851 225.466 139.366 224.624 139.787C224.999 139.974 225.326 140.208 225.7 140.395C225.7 140.255 225.653 140.114 225.653 139.974C225.56 139.085 224.156 139.085 224.25 139.974C224.25 140.114 224.297 140.255 224.297 140.395C224.344 140.909 224.858 141.284 225.373 141.003C226.308 140.488 227.057 139.927 227.805 139.132C227.431 138.851 227.057 138.571 226.683 138.29C226.121 139.085 225.56 139.88 224.952 140.629C224.39 141.331 225.326 142.313 225.934 141.611C226.683 140.816 227.478 139.974 228.226 139.179C227.852 138.898 227.478 138.617 227.104 138.337C226.168 139.74 225.232 141.19 224.297 142.594C223.923 143.202 224.671 143.903 225.279 143.576C229.583 140.956 230.706 135.156 232.249 130.712C232.53 129.823 231.22 129.542 230.893 130.337C229.91 132.723 228.647 135.062 226.963 137.027C226.168 137.962 224.905 138.477 224.156 139.319C223.969 139.506 223.782 139.553 223.689 139.787C223.455 140.208 223.642 140.629 224.11 140.816C224.156 140.816 224.203 140.863 224.25 140.863C224.624 141.003 224.999 140.722 225.092 140.395C225.092 140.348 225.092 140.348 225.139 140.301C225.513 139.459 224.156 139.085 223.829 139.927Z" fill="black"/>
  <path d="M229.021 138.524C229.442 138.056 229.723 137.588 229.863 137.027C230.097 136.185 229.021 135.904 228.6 136.465C227.618 137.775 226.636 139.085 225.653 140.395C225.092 141.096 226.308 141.798 226.87 141.096C227.852 139.787 228.834 138.477 229.817 137.167C229.396 136.98 228.975 136.793 228.554 136.606C228.46 136.933 228.32 137.214 228.086 137.495C227.431 138.243 228.46 139.225 229.021 138.524Z" fill="black"/>
  <path d="M207.41 126.923C206.1 124.303 207.503 123.321 210.123 122.619C210.45 122.526 210.778 122.479 211.058 122.338C212.181 121.824 212.836 120.701 213.304 119.625C214.052 118.035 214.473 116.304 215.456 114.854C217.514 111.72 221.163 111.86 222.332 115.602C223.502 119.345 222.051 123.508 219.572 126.361C218.356 127.765 216.859 129.075 215.081 129.683C213.538 130.244 212.181 130.057 210.684 129.402C209.608 128.934 207.644 127.999 207.363 126.782C207.176 125.894 205.819 126.268 206.006 127.157C206.521 129.589 210.17 131.086 212.368 131.413C214.754 131.788 216.999 130.618 218.824 129.121C222.893 125.753 225.419 119.812 223.455 114.667C221.35 109.1 215.643 111.158 213.538 115.555C212.883 116.912 212.555 119.204 211.479 120.187C210.123 121.45 208.392 120.982 206.989 121.964C205.024 123.368 205.211 125.847 206.193 127.765C206.614 128.466 207.831 127.765 207.41 126.923Z" fill="black"/>
  <path d="M206.474 125.473C213.725 125.286 217.233 118.549 218.824 112.375C219.058 111.486 217.701 111.112 217.467 112C216.064 117.52 213.023 123.882 206.474 124.069C205.585 124.116 205.585 125.519 206.474 125.473Z" fill="black"/>
  <path d="M187.248 109.147C186.406 109.614 181.307 104.048 179.155 96.61C177.565 91.1836 178.033 86.3654 178.594 83.3248C179.389 80.8923 180.512 78.2726 182.056 75.6063C188.698 64.1922 199.177 58.8127 204.603 56.5205C203.48 57.5964 202.17 58.9998 200.954 60.7774C199.27 63.1163 198.194 65.3149 197.493 67.1393C199.083 65.7827 200.907 64.4261 202.872 63.1163C207.269 60.1693 211.526 58.0642 215.222 56.5673C214.66 58.953 214.052 61.3387 213.491 63.6777C214.801 62.9292 216.625 61.8533 218.871 60.7774C221.35 59.6079 226.449 57.1754 227.244 58.2513C227.478 58.5788 227.197 58.953 226.776 60.3096C226.215 62.0872 226.028 63.5841 225.934 64.5665C227.384 64.3326 229.022 64.1455 230.799 64.0987C232.764 64.0051 234.541 64.0987 236.132 64.239C235.571 66.3908 235.009 68.4959 234.448 70.6477C235.571 71.0687 237.161 71.864 238.798 73.1738C243.196 76.7757 244.459 81.6407 244.786 83.5587C245.488 88.143 244.365 91.9788 243.523 94.0839C241.278 89.3124 236.834 87.4413 234.308 88.6108C232.764 89.3125 230.986 91.5578 231.173 93.85C231.22 94.3646 231.36 94.8324 231.501 95.1598C229.864 93.6629 227.384 91.6514 224.157 89.7802C220.929 87.9091 217.327 85.804 212.555 85.1959C203.574 84.0264 196.557 88.9382 194.686 90.2948C191.786 92.3531 187.061 95.6744 186.219 100.96C185.377 105.404 187.903 108.819 187.248 109.147Z" fill="#0018CC"/>
  <path opacity="0.11" d="M222.847 88.6106C224.297 91.8851 226.262 96.984 227.337 103.393C228.46 109.755 229.864 117.941 226.449 127.016C225.279 130.103 222.519 136.044 215.97 141.611C217.514 141.564 220.18 141.284 222.987 139.787C227.571 137.401 229.583 133.425 230.191 132.021C232.39 134.173 235.337 137.541 237.582 142.313C238.845 144.979 239.64 147.458 240.108 149.517C241.371 148.394 243.71 145.961 244.786 142.126C245.207 140.629 245.347 139.272 245.347 138.149C242.634 136.652 240.903 134.828 239.921 133.659C239.5 133.144 235.337 127.905 235.571 120.654C235.664 118.034 236.225 117.988 236.646 113.965C237.021 110.363 236.834 107.322 236.646 105.311C239.032 106.293 240.248 105.825 240.81 105.498C241.886 104.843 242.166 103.673 243.149 97.7324C243.663 94.5515 243.944 92.961 244.038 92.119C244.599 87.5814 244.879 85.2893 244.599 83.4649C243.804 78.2725 240.482 74.8108 239.36 73.7349C237.488 71.9105 235.571 70.8814 234.307 70.3201C234.869 68.3554 235.383 66.3439 235.945 64.3792C233.278 67.5133 230.799 69.6652 229.115 71.0685C224.905 74.4366 222.472 75.2318 219.572 78.4596C217.28 80.9856 215.97 83.5585 215.222 85.2893C217.795 86.4588 220.321 87.5347 222.847 88.6106Z" fill="#494949"/>
  <path opacity="0.17" d="M203.574 57.0349C201.983 57.7366 198.241 59.7013 195.621 63.8646C194.967 64.8938 193.516 67.4666 193.095 71.0686C192.628 75.0448 193.61 78.1789 194.171 79.7226C194.358 75.84 195.294 69.5716 199.036 63.1162C200.486 60.6837 202.077 58.6722 203.574 57.0349Z" fill="#494949"/>
  <path opacity="0.08" d="M236.646 105.545C236.506 105.498 236.225 106.012 235.196 109.567C233.793 114.386 233.044 117.941 232.623 119.718C232.015 122.291 230.986 125.94 229.068 130.337C232.39 130.992 235.711 131.647 239.032 132.255C237.816 129.589 236.366 125.753 235.804 120.982C234.916 112.795 237.114 105.638 236.646 105.545Z" fill="#494949"/>
</svg>
